<svg xmlns="http://www.w3.org/2000/svg" width="178" height="534" fill="none" xmlns:v="https://vecta.io/nano"><style><![CDATA[.B{fill:#070d1c}.C{stroke:#070d1c}.D{stroke-width:.548}.E{fill:#fff}.F{fill:#fff6f6}.G{stroke-miterlimit:10}.H{stroke-linecap:round}.I{stroke-linejoin:round}]]></style><g clip-path="url(#H)"><g class="B"><path d="M112.384 488.872l-1.847 12.071 22.707 14.54 13.995 11.255 26.574 4.037 2.376-8.517s-2.023-9.511-10.741-15.504c-11.789-8.105-16.716-21.041-16.716-21.041l-18.392 2.831-17.956.328zm-42.272-30.347l4.201 18.443-12.523 22.025s-8.507 16.337-18.332 19.713c-3.625 1.245-12.306-.139-15.06-2.86-4.291-4.24-3.091-11.374-3.091-11.374l4.663-8.021.349-3.79 6.395-12.811 2.199-13.247 31.2-8.078z"/></g><g class="F"><path d="M73.965 475.818s-10.738 14.537-11.362 20.554c-.411 3.956-5.701 9.662-8.899 13.167-3.094 3.392-9.434 8.979-16.179 8.337-6.999-.667-12.214-7.573-12.214-7.573s.722 5.583 1.946 7.392c1.311 1.937 5.851 4.149 8.153 4.495 3.533.53 10.572-2.212 13.731-3.868 3.813-1.999 10.146-8.394 11.975-12.271 2.864-6.072 1.637-7.611 2.441-9.047 2.593-4.629 10.243-11.975 11.234-17.155.194-1.01-.825-4.031-.825-4.031zm37.029 25.123s15.001 9.713 21.597 12.718c3.438 1.566 8.62 7.828 11.817 9.83 3.725 2.332 12.353 4.792 16.695 5.446 3.261.492 10.322-.165 12.879-2.198 1.282-1.02 2.527-6.045 2.527-6.045s1.659 3.965.05 6.876c-1.536 2.782-4.741 5.763-11.427 5.567-4.879-.144-19.31-2.875-19.31-2.875s-7.311-4.404-9.247-6.453c-1.137-1.203-3.597-4.652-4.99-5.55-2.179-1.405-15.25-6.105-15.25-6.105l-5.796-6.861.455-4.35z"/></g><g fill="#c1bac6"><path d="M146.488 524.59l1.56-5.171c.592-1.401 3.764-2.772 3.419-4.232-1.428-6.029-22.266-26.437-22.266-26.437l-7.637 1.489 21.21 22.493-1.04 4.312-1.515 2.903s2.417 2.881 3.662 3.589c.968.551 2.607 1.054 2.607 1.054zm19.904-16.97s-3.013.994-3.819.628c-5.885-2.678-16.991-19.5-16.991-19.5l3.153-3.037s1.278 4.212 2.031 5.457c2.972 4.911 15.626 16.452 15.626 16.452zM58.75 503.709s-1.232-3.716-2.083-4.67c-.379-.426-1.515-.899-2.081-.89-1.028.016-3.076 1.432-3.923.89-.613-.393-.738-3.488-.738-3.488l5.862-17.134 3.743-12.245s8.375-4.065 7.699-4.675-4.023 12.87-5.201 17.1l-4.2 14.389s2.08 1.508 2.562 2.201c.578.833 1.401 3.807 1.401 3.807l-1.508 2.607-1.534 2.108zm-28.779-7.258s2.815 1.167 3.675.121c5.729-6.969 9.813-28.797 9.813-28.797l-4.546-1.171s-.52 8.418-1.839 10.913c-1.454 2.749-6.477 15.044-6.477 15.044l-.627 3.89z"/></g><g stroke="#fff6f6" stroke-width="3.3" class="G H I"><path d="M146.568 514.213c.657-.657 1.008-1.511 1.646-2.185 1.649-1.741 3.612-3.006 5.805-3.967 1.382-.606 3.206-1.304 4.659-1.665 1.193-.296 2.487-.416 3.536-1.062-1.558-.561-3.7-.326-5.439-.327-4.912-.006-10.89.621-15.11 3.361-.131-1.391.919-2.309 1.672-3.231 1.184-1.45 2.824-3.009 4.501-3.866 2.177-1.113 4.954-1.523 7.35-1.86-1.004-1.233-3.376-.607-4.885-.532-4.723.237-10.007.527-14.354 2.625.327-1.332 1.607-2.267 2.459-3.218 2.657-2.968 6.435-5.89 10.485-6.561-.526-.991-1.357-.762-2.405-.704-1.006.055-2.005-.003-3.013.044-5.053.238-10.643-.51-15.317 1.849m-75.715 2.85c-1.769-1.61-4.309-1.771-6.595-2.127-4.225-.658-8.716-2.105-13.008-.917.938-1.988 3.596-2.255 5.642-2.833 6.133-1.73 11.798-2.015 18.119-1.961l-1.101.146m1.036-1.101c-2.596-3.465-8.308-5.156-12.29-6.458-1.74-.569-3.59-1.364-5.374-.694 2.045-1.478 3.812-1.466 5.575-1.671 3.887-.453 8.109-.603 12.012-.287 1.195.097 2.32.587 3.524.596-.509.089-1.02.098-1.535.118m1.052-.565c-1.823-.988-3.914-1.552-5.788-2.489-1.855-.929-3.554-2.191-5.411-3.135-2.106-1.072-4.524-1.8-6.808-2.367 1.419.152 3.727-.133 5.724-.452a68.75 68.75 0 0 0 9.562-2.216c1.908-.586 3.789-.712 5.59-1.716"/></g><path d="M11.663 222.719s-4.54 27.977-4.809 37.085c-.859 29.054 4.978 55.619 4.978 55.619l11.809 75.946 2.48 72.238 5.231 1.136s9.841 2.945 16.663 2.973c13.694.056 25.693-8.417 25.154-16.27-1.249-18.171-5.08-47.577-4.103-65.072 1.129-20.183 1.181-80.851 1.181-80.851l-2.843-32.003 6.347 1.4s14.154 35.368 13.938 55.216c2.312 40.364 8.063 70.94 12.98 93.563 5.084 23.396 5.199 54.143 5.083 61.787-.038 2.473 14.702 4.38 14.702 4.38l9.245-1.449s7.826 1.54 10.466 1.447c1.6-.057 12.848-4.277 12.635-10.566-.103-3.056.003-7.735-1.026-13.554-2.286-12.943-3.111-30.83-3.725-42.586-.93-17.785-.298-71.235-.298-71.235s-8.245-54.587-8.147-72.934c.081-15.034-12.235-44.224-12.656-43.93-3.565 2.495-10.635 20.005-21.05 20.453-9.653.415-22.115-8.736-32.3-11.176-9.343-2.237-23.047 2.621-39.762-10.694-4.466-3.558-22.172-10.923-22.172-10.923z" fill="#598cac"/><g class="F"><path d="M126.516 234.031s9.707 5.75 10.535 8.91c.588 2.246-3.537 9.246-3.537 9.246l-3.037-8.477-3.961-9.679z"/><path d="M126.951 234.295s-11.52 19.498-16.341 20.509c-13.8 2.894-24.555-9.464-41.494-11.141-5.194-.515-11.315 1.323-20.638-1.949-6.073-2.13-14.095-7.482-14.095-7.482l92.568.063z"/></g><path d="M128.715 233.399c2.078-1.364 3.202-7.038 3.202-7.038s-4.32-10.213-7.169-15.098c-1.154-1.979-.98-9.693-.98-9.693l5.279-5.742-.739-4.737s10.45-2.251 13.423-4.116c4.663-2.927 8.247-11.013 9.282-15.385 1.754-7.408-2.375-30.36-2.375-30.36s-6.424-9.68-7.156-20.83c-.783-11.92-3.57-25.068-6.619-31.626-2.861-6.155-12.427-13.984-19.657-15.63-2.559-.583-3.969-6.266-8.068-8.623-6.986-4.017-17.367-1.854-17.367-1.854S76.01 82.554 71.113 86.653c-1.772 1.483-9.388-.191-9.388-.191s-16.391-12.291-19.466-19.37c-.823-1.894-4.739 2.626-6.381 4.658-1.474 1.825.969 5.548-3.501 6.743-7.55 2.018-14.09 8.327-16.198 14.183-6.102 16.954-14.944 52.27-14.944 70.38 0 6.055 1.527 15.664 4.955 22.608 2.941 5.957 6.706 11.506 7.664 12.415C17.936 201.955 7.275 218.098 7 222c-.41 5.813 18.5 9 18.5 9l11.087 3.878c13.717 3.899 56.965 2.982 56.965 2.982s28.099.174 35.163-4.461z" fill="#c1bac6"/><g fill="#edd1bf"><path d="M92.138 196.387l-2.743 3.396s7.826-1.222 11.094.838c5.025 3.17 13.992 8.803 18.869 7.092 2.342-.822 5.626-8.054 5.626-8.054s4.163-3.088 4.127-3.526-.859-5.93-.859-5.93l-35.774 2.159-.339 4.025zm-26.331-16.475h-4.611s-16.376 5.203-23.753 4.9c-3.435-.142-4.491 7.481-4.491 7.481l-2.227.978-5.582-6.263-2.078-5.71.648-3.878s.011-7.507 1.527-9.316c3.76-4.488 8.909-6.347 8.909-6.347s-5.486-3.014-5.138-6.046c.071-.613 1.91-1.559 1.91-1.559s8.811 6.433 12.288 7.203c11.25 2.494 19.8.813 19.8.813l2.801 17.744zm4.837-92.988c4.277-2.081 12.142-15.446 12.142-15.446l6.517-8.865-3.763-10.359 2.368-1.282.753-4.135-2.468-.256c-.333-.035-1.026.127-1.055.461l.213 2.265-1.856-.836c-.363-.138-.166.397-.315.755l-.396.951-1.623 3.146-3.563-3.146L74.4 55.45l-.651-4.787-33.949 7.64s-2.085 1.594-1.743 2.208c3.476 6.232 8.346 13.988 14.025 19.516 3.03 2.949 6.881 4.983 9.563 6.436 2.117 1.145 6.771 1.545 8.999.461z"/></g><g opacity=".48"><path d="M82.785 46.821s0 20.231-13.88 22.732c-2.583.466-11.88-3.833-11.88-3.833v-6.187l13.134-6.864 6.555-8.584 6.07 2.737z" fill="url(#D)"/></g><g opacity=".57"><path d="M52.908 61.462s-1.718 7.272-5.76 12.235c-.8.983-5.694-6.624-5.694-6.624l-3.434-6.557 1.397-2.208 13.492 3.155z" fill="url(#E)"/></g><g opacity=".56"><path d="M37.657 162.208c-.568-.447-11.231 4.918-11.231 4.918v8.066l2.578 6.678 3.512 2.903 9.596-1.261 7.033-13.083c.549-.673-10.922-7.773-11.489-8.221z" fill="url(#F)"/></g><g opacity=".45"><path d="M127.846 191.091c.125-.355 1.31 5.65 1.31 5.65l-4.501 3.607-4.794 7.102-3.657.514-8.344-3-8.876-12.324 28.862-1.549z" fill="url(#G)"/></g><g fill="#eb6789"><path d="M40.648 64.61l-5.314.895.398-3.319-4.285 2.293c-.489.262-2.481.872-2.4.322l2.658-5.942c.029-.192-.444-.711-.602-.597l-2.325 2.563c-.55.399-.162-1.019.056-1.662l.922-4.653c.015-.061-.349-1.355-.403-1.322l-2.945 1.775c-.239.144-.525-.093-.428-.354l1.887-4.708 12.438 7.127-2.285 3.484 2.628 4.097zm9.11-4.096l-.432 2.957c-.025-.459 1.851.433 1.851.433l1.125.707 1.082-2.676 5.12.404-1.782-3.412-6.965 1.588zm23.037-9.849l.996.293.611 4.493 2.91-4.798 3.85 3.343 2.308-5.46 1.881.772.06-2.621 6.315-.479c.548-.055 1.192-.627.668-.799-3.424-1.12-4.215-6.184-4.064-6.512.205-.447 2.498 2.863 2.498 2.863l-.054-4.051 3.138.662 1.8-2.478-5.108-5.307 4.695-2.204c.245-.135.431-.877.154-.917l-3.771-.329c-.279-.084-3.611-2.044-3.759-1.794L72.795 50.665z"/></g><g class="B"><path d="M83.33 38.004c1.384-3.227 5.349-9.713 4.591-13.1-1.178-5.262-7.653-12.138-12.396-14.834l-7.434-4.087S52.008-4.942 41.22 4.172c-8.698 7.349-15.078 15.035-15.78 26.391-.2 3.241-2.382 5.071.245 14.736 2.107 7.755 17.692 14.882 22.478 15.198 5.229.345 18.738-4.544 24.629-9.832 4.157-3.731 7.922-6.563 10.537-12.661zm15.849 69.055c2.812-1.434 1.618-1.399 1.618-1.399l-9.081-1.117-2.411-.389 2.184 3.185 3.949 1.376c.343.275.591-.051 3.741-1.656z"/></g><path d="M100.315 105.6l1.528-2.98-12.538-1.05.289 3.006 10.721 1.024z" fill="#9a59cf"/><path d="M89.68 101.601l11.916.998.193-2.889-11.814-.757-.296 2.648z" class="F"/><path d="M101.243 99.675l-11.077-.722 2.122-2.701s2.118-1 3.416-1c1.63 0 4.19 1.426 4.19 1.426l1.349 2.997z" fill="#fff433"/><g opacity=".2" class="B"><g style="mix-blend-mode:darken"><path d="M61.898 86.5s1.7 1.012 6.289 1.017c5.395.005 11.008-10.307 11.008-10.307l10.106-14.594-2.396-6.595c-.26-.715-.917-.571-1.052.178-.529 2.961-2.142 7.719-4.97 12.818-2.212 3.988-7.901 9.825-11.134 12.471-1.858 1.52-7.851 5.012-7.851 5.012z"/></g><g style="mix-blend-mode:darken"><path d="M86.308 32.377s-3.446 8.998-5.145 11.706c-1.636 2.607-6.013 7.039-8.367 9.019-2.424 2.038-7.993 5.186-10.895 6.448-1.901.826-5.966 1.753-7.986 2.217-1.144.263-3.444.868-4.618.847-2.001-.036-6.034-.744-7.843-1.607-3.035-1.449-10.884-7.906-10.884-7.906"/></g><g style="mix-blend-mode:darken"><path d="M78.676 77.902s7.283-7.621 9.943-9.906c1.706-1.466 8.16-6.135 8.16-6.135l-7.478.754-10.625 15.287z"/></g><g style="mix-blend-mode:darken"><path d="M36.837 99.406l.248 16.346s1.136 17.965.565 23.92c-.392 4.089-3.023 17.576-3.023 17.576l9.758 4.217 1.076-27.378-2.019-13.949c-.148-.777-1.394-11.345-2.797-14.853-.65-1.626-3.808-5.879-3.808-5.879z"/></g><g style="mix-blend-mode:darken"><path d="M111.325 140.693s-.337 7.299-1.549 9.327c-.783 1.309-4.828 3.728-4.828 3.728s-5.274 2.052-4.983 2.46 13.147-.831 13.147-.831l-1.787-14.684z"/></g><g style="mix-blend-mode:darken"><path d="M69.107 94.867s7.346-2.878 9.57-4.262C82.38 88.3 91.633 79.821 92.119 79.48s7.093-7.584 9.667-9.892c1.414-1.268 3.969-4.637 5.79-4.468 2.191.203 5.785 6.925 5.785 6.925s-5.947-.37-7.775.293c-2.102.763-5.318 4.118-6.832 5.762-4.774 5.186-12.595 11.613-17.516 14.44-2.352 1.351-10.182 3.754-10.182 3.754l-1.949-1.428z"/></g><g style="mix-blend-mode:darken"><path d="M37.087 184.678c-1.095.654-1.954 2.669-1.954 2.669s20.345-3.568 26.295-2.665c1.569.238.344 2.911 2.677 4.022 4.729 2.252 11.622 3.659 11.622 3.659l1.561 3.34 12.88 3.736 7.125.171 25.457 3.564 1.908-2.827 4.452-3.606-.728-5.666 13.352-4.101s5.842-5.801 6.906-8.277c2.809-6.535 2.013-18.543 2.013-18.543s-4.84 11.976-7.776 15.019c-3.261 3.377-11.752 8.241-16.359 9.221-11.211 2.388-35.663 4.178-46.73.377-1.156-.397-4.023-2.782-4.023-2.782l-9.953-2.074h-4.611l-12.985 3.518s-8.724-.191-11.127 1.245z"/></g><g style="mix-blend-mode:darken"><path d="M123.756 202.643l-4.403 5.071-10.987-2.27s-7.991-5.316-11.077-5.833c-2.421-.407-7.684.142-9.709 1.489-.921.613-11.356-2.545-11.356-2.545l-3.838 3.919s-29.885 4.755-39.874 3.988c-11.086-.85-18.193-8.173-18.193-8.173s.984 2.666.445 4.323l-1.658 5.273 11.875 3.248c11.157 2.653 35.036 2.589 45.661-1.634 1.726-.687 4.528-3.481 6.351-3.775 2.192-.353 6.908 1.52 8.783.738 1.457-.608 4.831-2.057 7.165-1.893 3.565.249 12.05 5.319 15.425 6.564 2.419.893 7.658 1.328 10.232 1.215 1.484-.065 5.817-1.215 5.817-1.215l-.659-8.49z"/></g><g style="mix-blend-mode:darken"><path d="M29.5 232.5H37s30.125 2.586 40.16 2.635c8.046.04 24.135-1.144 32.088-2.343 5.724-.863 22.562-5.2 22.562-5.2l-2.043 4.673-5.015 5.621s-12.201 3.054-16.386 3.437c-6.945.636-27.701-1.688-27.701-1.688L36.5 234.5c-.204-.025-2.315-.409-2.5-.5l-4.5-1.5z"/></g><g style="mix-blend-mode:darken"><path d="M73.916 244.738s12.191 8.148 16.468 10.505c3.265 1.798 9.789 5.916 13.492 6.339 2.336.267 7.323-.391 9.232-1.777 2.224-1.615 6.23-9.053 6.23-9.053l4.197-10.975s-7.441 11.877-11.616 14.195c-3.551 1.971-9.15 1.927-12.153 1.271-3.871-.847-14.552-6.278-14.552-6.278l-11.298-4.227z"/></g><g style="mix-blend-mode:darken"><path d="M74.789 480.385c.682-4.98-4.463-20.397-4.463-20.397l-10.343 6.181v4.229s-1.109 6.816-1.385 7.295-6.667 18.07-6.667 18.07l-4.909 11.442 4.025 4.512.808 5.328s6.668-6.226 8.29-8.769c4.165-6.534 2.498-9.28 3.329-10.579 1.342-2.094 5.262-6.696 5.262-7.465s5.511-5.888 6.052-9.847z"/></g></g><path d="M106.339 72.225c-2.221.835-4.06 2.3-5.771 3.939 1.612-1.739 3.369-3.3 5.611-4.319 2.485-1.112 5.16-.636 7.589.156l2.196.693c3.279 1.016 5.855 1.813 9.034 4.114 2.589 1.878 6.067 5.188 8.078 7.766 1.364 1.751 2.477 3.604 3.387 5.527 2.472 5.225 3.45 10.935 4.023 16.674.216 2.168.375 4.348.532 6.515.258 3.554.514 7.072 1.016 10.442m-35.695-51.507l35.695 51.507m-35.695-51.507c2.38-.906 4.846-.336 7.157.545l2.243.827c3.188 1.157 5.559 2.018 8.461 4.276 2.375 1.843 5.777 5.254 7.606 7.676 1.267 1.673 2.305 3.429 3.17 5.257 2.347 4.95 3.422 10.465 4.178 16.125m-32.815-34.705l38.419 61.005m-2.724-9.498l.27-.04-.27.04zm2.724 9.498c-1.452-3.188-2.696-6.514-3.288-9.398m3.288 9.398c.544 1.415 1.128 2.81 1.719 4.132m-1.719-4.132c.628 1.379 1.295 2.733 1.966 4.013-1.954-4.371-3.823-9.524-4.419-13.551-.501-3.363-.755-6.86-1.012-10.404l-.534-6.54c-.575-5.749-1.556-11.496-4.048-16.764-.918-1.94-2.042-3.811-3.419-5.579-2.028-2.6-5.524-5.927-8.134-7.82-3.218-2.329-5.839-3.14-9.123-4.157l-2.182-.688c-2.446-.797-5.204-1.301-7.787-.145-3.309 1.504-5.567 4.157-7.802 6.784l-.788.923 49.001 58.06m-5.007-13.53c-.763-3.721-1.209-7.593-1.657-11.48l-.659-5.422m2.316 16.902l-.268.055m.268-.055l-.268.055m-2.048-16.957l-.267.036.267-.036zm2.048 16.957c.854 4.163 3.048 9.224 5.275 13.475m-5.275-13.475c-.766-3.732-1.214-7.625-1.663-11.518l-.656-5.403c-.755-5.653-1.826-11.132-4.154-16.043l11.748 46.439" class="B C D"/><mask id="A" class="E"><path d="M147.906 139.268c2.544 7.798 1.834 15.604 2.33 23.838.429 7.18-.648 14.036-5.21 19.79-1.52 1.905-2.73 2.723-4.193 3.311s-3.275.888-5.734 1.528a68.55 68.55 0 0 1-2.807.657c-3.978.847-8.039 1.363-12.119 1.668-.007.001-.014.001-.02.002l-11.483 1.125c.022-.002.044-.002.066-.003-3.934.097-7.886.281-11.819.763-3.213.438-6.653-.904-10.181-1.27-3.041-.303-6.222-.317-8.838-2.121-1.269-.866-2.066-2.812-3.066-4.046.938 1.286 1.59 3.248 2.901 4.271 2.605 2.016 5.939 2.206 8.906 2.659 3.362.5 6.729 2.068 10.409 1.775 3.884-.298 7.788-.321 11.702-.284.012 0 .024 0 .066-.003l11.51-.808c-.007 0-.014.001-.02.001 4.163-.228 8.337-.71 12.443-1.583a65.07 65.07 0 0 0 2.904-.688c2.357-.635 4.204-.948 5.977-1.674 1.773-.721 3.379-1.907 4.986-4.051 4.83-6.407 5.626-13.832 4.853-21.121-.862-8.083-.591-16.088-3.563-23.736z"/></mask><g class="B"><path d="M147.906 139.268c2.544 7.798 1.834 15.604 2.33 23.838.429 7.18-.648 14.036-5.21 19.79-1.52 1.905-2.73 2.723-4.193 3.311s-3.275.888-5.734 1.528a68.55 68.55 0 0 1-2.807.657c-3.978.847-8.039 1.363-12.119 1.668-.007.001-.014.001-.02.002l-11.483 1.125c.022-.002.044-.002.066-.003-3.934.097-7.886.281-11.819.763-3.213.438-6.653-.904-10.181-1.27-3.041-.303-6.222-.317-8.838-2.121-1.269-.866-2.066-2.812-3.066-4.046.938 1.286 1.59 3.248 2.901 4.271 2.605 2.016 5.939 2.206 8.906 2.659 3.362.5 6.729 2.068 10.409 1.775 3.884-.298 7.788-.321 11.702-.284.012 0 .024 0 .066-.003l11.51-.808c-.007 0-.014.001-.02.001 4.163-.228 8.337-.71 12.443-1.583a65.07 65.07 0 0 0 2.904-.688c2.357-.635 4.204-.948 5.977-1.674 1.773-.721 3.379-1.907 4.986-4.051 4.83-6.407 5.626-13.832 4.853-21.121-.862-8.083-.591-16.088-3.563-23.736z"/><path d="M147.906 139.268l.511-.199-1.033.369.522-.17zm2.33 23.838l.547-.032v-.001l-.547.033zm-5.21 19.79l.428.342.002-.001-.43-.341zm-4.193 3.311l.203.509h.001l-.204-.509zm-5.734 1.528l-.174-.52.312 1.051-.138-.531zm.005-.001l.174.52-.31-1.051.136.531zm-2.812.658l-.114-.536h0l.114.536zm-12.119 1.668l-.041-.547-.005.001.046.546zm-.02.002l-.046-.547-.005.001.051.546zm-11.483 1.125l-.056-.546.082 1.093-.026-.547zm.066-.003l.027.547-.041-1.095.014.548zm-11.819.763l-.067-.545-.007.001.074.544zm-10.181-1.27l.057-.546h-.002l-.054.546zm-8.838-2.121l.311-.451-.002-.002-.309.453zm-3.066-4.046l.426-.345-.869.668.443-.323zm2.901 4.271l-.337.432.002.002.336-.434zm8.906 2.659l-.083.542.002.001.081-.543zm10.409 1.775l-.042-.546h-.001l.043.546zm11.702-.284l-.005.549h.005v-.549zm.066-.003l-.036-.547h-.007l.043.547zm11.51-.808l.045.546-.086-1.093.041.547zm-.02.001l-.03-.548.03 1.096v-.548zm12.443-1.583l-.114-.536h0l.114.536zm2.904-.688l-.127-.534-.012.003.139.531zm.005-.001l-.142-.53-.009.002.151.528zm5.972-1.673l-.207-.508-.001.001.208.507zm4.986-4.051l-.438-.331-.001.002.439.329zm4.853-21.121l.545-.058h0l-.545.058zm-4.085-23.566c1.251 3.833 1.706 7.68 1.907 11.613.101 1.968.138 3.95.181 5.965l.216 6.123 1.095-.066c-.123-2.046-.172-4.069-.214-6.081l-.182-5.997c-.204-3.977-.667-7.933-1.96-11.897l-1.043.34zm2.304 23.701c.425 7.108-.646 13.809-5.092 19.417l.86.681c4.678-5.901 5.761-12.912 5.327-20.163l-1.095.065zm-5.091 19.415c-1.466 1.839-2.602 2.595-3.969 3.144l.409 1.018c1.56-.627 2.845-1.507 4.417-3.478l-.857-.684zm-3.968 3.144c-.693.277-1.48.492-2.419.72l-3.249.787.276 1.061c1.225-.319 2.273-.55 3.231-.783.947-.229 1.798-.459 2.568-.767l-.407-1.018zm-5.357 2.558l-.043.012c-.011.003-.021.005-.028.006-.019.003-.022.004-.021.003.01-.001.016-.002.024-.003s.017-.004.029-.007.028-.007.045-.013l-.347-1.04c.017-.006.031-.01.043-.012s.021-.005.028-.006c.019-.004.022-.004.021-.004a.38.38 0 0 1-.023.004c-.008.001-.018.003-.03.006s-.027.007-.045.013l.347 1.041zm-.304-1.053a69.28 69.28 0 0 1-2.79.653l.228 1.073c.95-.202 1.895-.423 2.835-.664l-.273-1.062zm-2.79.653c-3.948.84-7.984 1.354-12.046 1.657l.081 1.094c4.1-.306 8.186-.826 12.194-1.678l-.229-1.073zm-12.051 1.658c-.013.001-.016.001-.02.001l.091 1.093c.013-.001.017-.001.02-.001l-.091-1.093zm-.025.002l-11.488 1.125.111 1.091 11.479-1.124-.102-1.092zm-11.406 2.218c.008 0 .016 0 .027-.001s.025-.001.04-.002l-.054-1.095c-.007 0-.015.001-.026.001s-.025.001-.04.002l.053 1.095zm.026-1.098c-3.94.097-7.913.282-11.871.766l.133 1.089c3.907-.478 7.838-.662 11.766-.759l-.028-1.096zm-11.879.767c-1.513.207-3.102-.004-4.795-.328-1.665-.319-3.46-.757-5.255-.944l-.113 1.091c1.733.18 3.422.596 5.162.93 1.712.328 3.45.57 5.15.338l-.148-1.087zm-10.053-1.272c-3.125-.311-6.113-.324-8.581-2.026l-.623.903c2.764 1.906 6.138 1.92 9.095 2.214l.109-1.091zm-8.583-2.028c-.535-.365-1.001-.982-1.482-1.729-.457-.708-.942-1.562-1.467-2.209l-.852.69c.475.586.888 1.323 1.397 2.113.484.752 1.051 1.54 1.786 2.041l.618-.906zm-3.818-3.27c.445.61.808 1.359 1.277 2.183.449.787.983 1.615 1.73 2.197l.674-.864c-.565-.441-1.012-1.105-1.451-1.876-.419-.735-.851-1.61-1.344-2.286l-.886.646zm3.008 4.382c1.387 1.073 2.955 1.65 4.529 2.016 1.557.363 3.184.531 4.631.751l.165-1.084c-1.52-.232-3.045-.385-4.548-.735-1.486-.346-2.888-.873-4.106-1.816l-.671.868zm9.162 2.768c1.649.245 3.27.746 5.036 1.175 1.738.422 3.568.757 5.496.604l-.087-1.093c-1.752.139-3.445-.163-5.151-.577-1.677-.407-3.42-.939-5.134-1.194l-.161 1.085zm10.531 1.779c3.86-.296 7.745-.32 11.655-.282l.01-1.097c-3.917-.037-7.841-.015-11.749.286l.084 1.093zm11.66-.282a1.39 1.39 0 0 0 .109-.005l-.086-1.094c-.017.002-.024.002-.024.002l.001 1.097zm.103-.005l11.513-.808-.081-1.094-11.505.808.073 1.094zm11.427-1.902h.026v1.096c.033 0 .063-.003.065-.003l-.091-1.093zm.056 1.095c4.185-.228 8.387-.713 12.527-1.594l-.228-1.072c-4.073.866-8.217 1.345-12.359 1.571l.06 1.095zm12.527-1.594a63.14 63.14 0 0 0 2.928-.694l-.277-1.061a63.64 63.64 0 0 1-2.879.683l.228 1.072zm2.917-.691c-.02.004-.023.005-.027.006-.02.003-.024.003-.03.004s-.012.001-.021.002-.021.002-.037.002c-.008 0-.019 0-.031-.001s-.029-.002-.05-.004a.67.67 0 0 0-.036-.006c-.013-.003-.03-.007-.048-.013a.45.45 0 0 1-.067-.025c-.025-.011-.056-.027-.09-.051s-.073-.057-.11-.103c-.014-.018-.041-.057-.053-.079a.74.74 0 0 1-.042-.095c-.008-.026-.02-.078-.024-.104a1.16 1.16 0 0 1-.003-.101c.004-.065.019-.12.036-.164s.036-.077.053-.104.034-.047.048-.063a.71.71 0 0 1 .039-.039c.012-.011.022-.019.031-.026.017-.014.032-.024.043-.031s.021-.013.029-.018c.014-.008.027-.014.035-.017s.015-.007.02-.01.017-.007.022-.008.016-.006.019-.007c.02-.006.021-.007.023-.007l.022-.006c.012-.002.02-.004.024-.005s.027-.004.04-.006c.027-.002.152.004.246.028.319.299.238.867.125.97-.03.019-.074.042-.088.049l-.024.01-.023.008c-.02.006-.021.006-.021.007l-.303-1.055c-.016.005-.019.006-.023.008-.014.004-.02.007-.023.008l-.025.01c-.014.006-.058.03-.088.049-.113.103-.194.671.125.97a1.08 1.08 0 0 0 .246.028l.04-.006c.018-.004.022-.005.024-.005l.022-.006c.018-.005.021-.006.025-.008.01-.003.015-.005.02-.007s.012-.004.022-.009c.005-.002.012-.005.02-.009a.32.32 0 0 0 .035-.018c.008-.004.017-.01.029-.017.005-.003.012-.008.019-.013s.015-.011.024-.018.019-.016.031-.026a.48.48 0 0 0 .038-.039.42.42 0 0 0 .049-.064.5.5 0 0 0 .053-.104.53.53 0 0 0 .036-.163c.001-.025-.001-.075-.003-.101s-.016-.078-.024-.104a1.03 1.03 0 0 0-.042-.096.89.89 0 0 0-.053-.078c-.037-.046-.077-.08-.11-.103s-.065-.04-.091-.052-.048-.019-.066-.024-.035-.01-.049-.013-.025-.004-.036-.006a.34.34 0 0 0-.049-.004c-.012-.001-.023-.001-.031-.001s-.016.001-.022.001c-.024.002-.031.002-.037.003-.02.003-.026.004-.03.004-.015.003-.018.004-.021.005l.238 1.07zm.021-.005c2.286-.616 4.222-.952 6.037-1.694l-.416-1.015c-1.732.708-3.489.999-5.906 1.65l.285 1.059zm6.036-1.694c1.875-.763 3.558-2.016 5.218-4.231l-.878-.657c-1.554 2.073-3.082 3.192-4.754 3.872l.414 1.016zm5.217-4.229c4.946-6.56 5.742-14.146 4.96-21.509l-1.091.116c.766 7.214-.03 14.48-4.745 20.732l.876.661zm4.96-21.509c-.214-2.01-.358-4.016-.501-6.024l-.489-6.006c-.414-3.99-1.096-7.958-2.607-11.847l-1.022.397c1.46 3.76 2.129 7.618 2.538 11.564.205 1.973.344 3.961.487 5.97l.503 6.062 1.091-.116z" mask="url(#A)"/><g class="C D"><path d="M84.333 70.263h0l-3.538 4.475 3.097-4.8v-.001l1.907-2.513a17.74 17.74 0 0 0 .835-1.167l.174-.262.629-.924c.556-.778 1.184-1.516 2.072-2.125 2.179-1.468 4.732-1.342 7.131-1.224l.212.011 1.06.049c1.634.07 3.329.143 4.934.551a15.4 15.4 0 0 1 3.39 1.312h0c1.702.901 3.168 2.23 4.195 3.781-1.272-1.359-2.818-2.429-4.451-3.296h0a14.89 14.89 0 0 0-3.27-1.265c-1.533-.393-3.251-.467-4.907-.539l-.98-.045c-2.436-.135-5-.255-7.007 1.119-.81.544-1.397 1.241-1.934 1.993l-.616.9-1.037 1.469-1.898 2.499zm-4.046 22.216h0c-1.747 1.1-3.56 2.086-5.392 2.793-.556.215-1.401.499-2.231.654m7.624-3.447l3.748-2.393-3.894 2.161c-1.738 1.094-3.534 2.07-5.345 2.769-.548.212-1.376.49-2.184.641-.805.16-1.595.158-1.985-.041l-.121.246m9.782-3.384l3.042-1.717m-3.042 1.717l3.042-1.717m-10.666 5.164l-.052-.269.053.269zm0 0c-.418.083-.835.125-1.204.119-.36-.005-.704-.056-.955-.184m0 0c-.409-.201-.705-.43-.914-.708s-.317-.588-.376-.923l-.001-.004h0c-.109-.687.072-1.555.403-2.429l.001-.002h0l.852-2.086.28-.671.233-.566-.369.49c-.581.791-1.159 1.686-1.508 2.639l-.001.002h0c-.35.937-.559 1.849-.433 2.704v.003h0c.113.829.64 1.61 1.601 2.048.722.327 1.589.269 2.492.107.886-.167 1.743-.457 2.327-.683h0c1.88-.726 3.719-1.727 5.487-2.84h0c.995-.626 1.897-1.384 2.75-2.181m-12.825 5.1l12.825-5.1m-36.917-6.58l-4.635-3.244-1.214-.807-2.659-1.971 1.24.668.114.061 1.555.841c1.575.9 3.473 2.171 5.929 4.014l4.029 3.211 3.364 2.711 4.086 3.069c1.353.961 2.701 1.77 3.908 2.477h.001c1.046.609 2.029 1.122 2.951 1.45-.963-.149-2.041-.498-3.171-1.029h-.001c-1.302-.61-2.621-1.496-4.002-2.449l-4.111-3.088-3.373-2.718-4.011-3.197zm0 0l-.166.218.166-.218zm-10.534-7.748a9.53 9.53 0 0 0 .85 1.01l.177-.211c-.361-.244-.701-.504-1.028-.798z"/><path d="M63.062 98.772c.304-1.391.784-2.749 1.366-4.083l-.183.967-.014.077-.634 3.158v.001c-1.395 6.29-1.586 12.663-.815 19.095v.001c.17 1.379.268 2.773.367 4.194l.006.09c-.42-1.395-.752-2.8-.918-4.219v-.001c-.778-6.484-.586-12.923.825-19.279v-.001zm11.23-.112h0c1.241 5.714 1.967 11.393 1.968 17.422l.017 1.325.002.132.015 1.515v.002l-.005.475c-.011 1.337-.023 2.684-.359 3.941.652-1.293.91-2.877.912-4.413v-.001c.003-.518-.005-1.03-.015-1.53l-.003-.142-2.533-18.726zm0 0c-.32-1.457-.556-2.944-.783-4.463.538 1.439 1.004 2.88 1.319 4.347h0c1.247 5.743 1.98 11.466 1.98 17.538L74.292 98.66zm-38.33-27.24a6.73 6.73 0 0 1 2.438-2.476l.207-.114.795-.405c-.147.149-.281.311-.422.481l-.312.367h0l-.005.005c-.601.711-1.202 1.717-1.744 2.679v.001c-.562 1.004-1.114 2.047-1.26 3.025-.059.322-.034.639.037.953-.18-.252-.322-.54-.406-.914-.242-1.1.027-2.456.674-3.602h0zm-23.487 32.447h0c1.835-6.495 4.272-14.171 9.075-19.165-5.008 4.846-7.711 12.479-9.729 18.971-2.897 9.319-5.123 18.582-6.896 28.08l-1.234 7.087m8.784-34.973L3.691 138.84m8.784-34.973c-2.645 9.366-4.705 18.619-6.472 28.087l.27.05-.27-.05-1.259 7.061-.734 4.187c-1.602 9.013-3.196 17.981-2.13 27.137l.272-.032-.272.032c.461 3.953 1.239 7.701 2.453 11.269-1.342-3.524-2.256-7.258-2.844-11.217l-.271.04.271-.04c-1.431-9.628.144-19.121 1.709-28.558l.493-2.993m8.784-34.973L3.42 138.796l.271.044m25.174 66.885h0c5.164.618 10.68-.064 16.194-.777l.433-.056c2.815-.364 5.625-.727 8.384-.928 1.695-.119 3.432-.098 5.182-.057l.815.02c1.478.036 2.962.073 4.422.036 3.457-.089 6.821-.593 9.759-2.528.407-.264.774-.615 1.107-1.028-.306.426-.654.798-1.056 1.099-2.87 2.125-6.266 2.83-9.776 3.079-1.62.114-3.257.131-4.875.148l-.404.004c-1.745.019-3.464.047-5.091.21-2.113.205-4.276.494-6.459.785l-2.3.304c-5.535.713-11.156 1.267-16.437.421h0c-4.749-.756-9.201-2.673-12.954-6.558 3.982 3.665 8.389 5.262 13.056 5.826zm54.781-5.085l-.006.017.005-.017zm-.018-.005h0zm.597.238l-.56-.225v-.001l-4.149-1.671 4.37.889.006.002.009.002.757.205 1.122.296c.614.145 1.227.248 1.729.184h0l.005-.001h.004 0l.009-.002a1.54 1.54 0 0 0 .575-.179c.174-.098.317-.225.477-.387l.002-.002c.161-.166.322-.376.487-.592l.012-.016.539-.669c.337-.373.7-.692 1.057-1.005l.092-.081c.379-.334.754-.672 1.045-1.052.179-.219.323-.528.435-.865a6.04 6.04 0 0 0 .215-.894c.037.72-.027 1.404-.304 1.958-.244.48-.57.909-.906 1.318l-.251.3-.692.877-.329.51-.109.175c-.15.239-.309.481-.503.718l-.001.002c-.366.456-.949.898-1.721.975h-.002l-.016.002-.013.001c-1.24.109-2.391-.363-3.391-.772zm12.522-.945h0l-.38-.056-3.325-.408a11.45 11.45 0 0 1 3.787-.078h.001c1.744.265 3.413.744 4.672 1.393 1.236.643 2.359 1.429 3.47 2.22l.206.147 3.163 2.074c1.205.663 2.522 1.132 3.883 1.497h0l3.584 1.059c-1.253-.075-2.505-.201-3.726-.53h0c-1.39-.373-2.747-.853-4.006-1.546-1.158-.64-2.223-1.399-3.287-2.157l-.136-.097-3.403-2.18c-1.17-.608-2.815-1.084-4.502-1.338zm26.587 3.368c.534-.579.815-1.233 1.076-1.865l.032-.079c.247-.607.49-1.201.883-1.689.552-.696 1.515-1.396 2.306-1.878l.396-.231.042-.023.473-.279c.31-.203.603-.454.818-.811.044-.095.059-.156.065-.204.005-.04.006-.068.007-.107l.002-.099c-.001-.142-.014-.304-.036-.495v-.008h0c-.058-.69-.316-1.683-.641-2.543l-.001-.002h0l-.169-.447.015.477v.003h0c.026.914.156 1.936.251 2.574l.001.008h0l.032.432a.57.57 0 0 1-.002.104l.014.007-.028.068-.002.008-.004.008-.011.026c-.001.002-.012.025-.032.051h-.001c-.005.006-.026.033-.064.058-.139.165-.329.307-.517.431l-.642.381-.252.145c-.836.515-1.804 1.205-2.448 2.003-.44.552-.683 1.144-.922 1.726l-.072.177-.254-.105c-.258.631-.51 1.187-.939 1.641a.38.38 0 0 0-.031.037l.655.5zm0 0l-.001-.001-.016.018-.016.018.002.002m.031-.037l-.031.037m-1.605 1.266l-.47.897.007.004-.794 1.35-.007.013-.008.012-.004.005-.02.058.059-.073.006.004 1.108-1.074.008-.011.016-.025.006-.008h0l.568-.876-.475-.276zm0 0l.245-.42.001-.002.024-.034-.27.456zm1.605-1.266l-.309.393-.56.711-.004-.003-.022.033-.02.031.003.002-.147.253-.071.122 1.13-1.542zm5.576-7.239c.003.018.003.033.002.039l-.198-.091h.184c.009.026.011.046.012.051v.001zm-.022-.078l-.187.02-.058-.026-.009-.155a.29.29 0 0 1 .085.012c.073.023.119.069.143.104a.26.26 0 0 1 .026.045zm-54.035-35.718v-.003a2.26 2.26 0 0 1 .235-.726 2.8 2.8 0 0 0-.04.744h0v.004c.029.387.129.797.248 1.208l.188.619.003.011.195.641.004.015.236.852h0c1.249 4.959 1.253 9.818.41 14.744v.001c-.122.717-.309 1.43-.542 2.137v.002a36.14 36.14 0 0 1-.4 1.169l.104-1.233c.082-.74.175-1.461.298-2.168v-.001c.833-4.87.827-9.637-.4-14.516v-.001a27.59 27.59 0 0 0-.235-.85c-.248-.865-.44-1.81-.303-2.649zm14.043-2.578h0l1.341-.086h0l1.442-.098 11.608-.944.763-.086c4.521-.508 9.343-1.05 13.576.624 3.081 1.21 5.81 3.499 8.259 5.966l1.98 2.021 1.387 1.42-40.357-8.817zm0 0c-2.853.171-5.713.159-8.573.106a269.28 269.28 0 0 1 8.54-.654l-.016-.274m.049.822l-.049-.822m0 0c-3.617.217-7.258.518-10.882.878l39.864-1.156c-4.363-1.709-9.119-1.181-13.59-.684l-1.009.111c-3.836.42-7.721.682-11.585.942l-1.444.098h0l-1.337.085-.016-.274zm28.981-.278c3.205 1.264 5.965 3.594 8.447 6.09l-8.447-6.09zm1.636-2.524h-.001a26.99 26.99 0 0 0-3.509-.08c-.288.003-.604.087-.906.18l-.299.095-.636.19-.47.106.447-.182.542-.256.332-.163c.301-.141.612-.262.951-.317 1.253-.198 2.458-.234 3.599-.119h.002c7.214.682 11.997 5.74 15.576 11.577h0c.913 1.488 1.839 3.289 2.459 5.189h.001c.615 1.862.787 3.847.348 5.593.149-1.795-.292-3.631-.869-5.422l-.001-.001c-.6-1.84-1.511-3.615-2.405-5.073-3.549-5.781-8.2-10.661-15.161-11.317z"/><path d="M116.065 153.189c-.609.393-1.344.704-1.985.937.476-.488 1.05-1.028 1.699-1.405h0l.004-.003c.829-.503 1.557-.919 2.102-1.089 2.22-.659 5.023-.58 7.248.542.628.322 1.144.83 1.515 1.424-.459-.293-.925-.522-1.373-.742l-.391-.194c-2.037-1.044-4.777-1.129-6.841-.504-.207.059-.509.201-.842.377l-1.131.654h-.001l-.004.003z"/><path d="M114.088 151.123c-.203-1.691-.467-3.367-.801-4.457-1.009-3.219-1.738-7.824-2.47-12.443l-.704-4.343 3.975 21.243zm0 0c.199 1.686.325 3.316.341 4.256.008.445-.365.818-.824.818s-.83-.372-.821-.817m1.304-4.257l-1.304 4.257m-5.27-46.324c-.187 5.99.57 11.484 1.447 17.848l.421 3.088.564 4.464c.563 4.604 1.123 9.181 2.052 12.586.248.901.466 2.603.6 4.233.137 1.637.203 3.274.186 4.105m-5.27-46.324l5.27 46.324m-5.27-46.324c.022 5.976.964 11.395 2.06 17.701l.539 3.123-2.599-20.824zm-66.825 49.958h0c-.441-1.112-.546-2.458-.514-3.75l.107-1.882.007-.085.093-1.566c.052-3.256.408-5.889.761-8.494l.113-.836h0c.385-2.882.723-5.811.57-9.522-.123-2.88-.708-5.657-1.294-8.437l-.054-.256c-.602-2.857-1.189-5.722-1.234-8.663m1.448 43.491l.837-16.577c.386-2.887.726-5.835.572-9.569-.124-2.904-.714-5.701-1.298-8.475-.622-2.95-1.238-5.874-1.284-8.875l-.017-1.659c-.028-3.883-.062-8.53-1.5-12.306.3.869.525 1.779.691 2.709.316 1.767.427 3.623.449 5.442m1.55 49.31a.81.81 0 0 1-.486 1.049.82.82 0 0 1-1.058-.481l-.259.091m1.802-.659l-1.974-7.342c-.018.382-.07.854-.129 1.388-.07.638-.15 1.363-.194 2.128-.076 1.408-.037 2.973.494 4.485m.355-44.15l.27-.004-.27.004zm0 0l-.017-1.67-.086-4.149m0 0c-.083-1.812-.256-3.657-.63-5.409a17.98 17.98 0 0 0-.768-2.649c1.284 3.722 1.171 8.239 1.075 12.101l-.039 1.771m.362-5.814c.017 1.394-.017 2.766-.049 4.058l-.039 1.761m0 0l-.274-.005m.274.005l-.274-.005m.274.005c-.045 2.972.443 5.869.951 8.755l.066.372c.486 2.752.971 5.498.987 8.248l-.274.002c-.016-2.727-.497-5.451-.984-8.21-.53-3.002-1.067-6.043-1.02-9.172m.11 44.155l.259-.091c-.513-1.461-.554-2.984-.479-4.379m.22 4.47l-.22-4.47m0 0a37.48 37.48 0 0 1 .175-1.956l.018-.159c.058-.531.111-1.012.13-1.403l-.322 3.518z"/></g></g><g stroke-width="2.193" class="G H I C"><path d="M39.415 122.97c-.859-.601-4.943-4.932-5.698-5.655-1.689-1.614-2.344-3.117-4.01-4.775-3.091-3.075-6.475-4.279-10.714-3.967-2.096.154-6.911 1.638-8.766 3.477m98.904 9.091c.706-2.187.614-4.363 2.187-5.799 1.417-1.292 3.408-2.244 4.681-3.708 1.611-1.852 2-4.516 3.631-6.416 2.259-2.632 5.716-3.857 9.083-4.288 3.494-.449 9.258 2.335 10.111 2.393"/></g><g class="B D C"><path d="M57.093 163.193l-.388.045-.883.14c-.576.101-1.18.207-1.82.22-2.493.04-5.079-.083-7.563-.535l.05-.27m10.603.4l-.423-.227-.903.144-.406.069c-.445.074-.896.135-1.364.145m3.095-.131c1.605-.147 3.199-.444 4.79-.767l-4.79.767zm-10.604-.4c2.46.448 5.027.571 7.508.531m-7.508-.531l-2.082-.473-.519-.129c-.851-.209-1.702-.399-2.56-.477-1.122-.103-2.287-.105-3.46-.02h0l-.505.036-3.604.309c1.305-.46 2.681-.795 4.07-.892v-.001c1.199-.086 2.393-.084 3.549.022.907.085 1.778.278 2.64.49l.558.139 2.01.457c2.409.439 4.946.561 7.401.521a8.49 8.49 0 0 0 1.283-.137l.389-.066.94-.15.427-.042c1.229-.071 2.465-.055 3.709-.006l-14.246.419zm7.508.531l.005.273-.005-.273zm-22.184-8.516l.211.384.015.027c.284.527.562 1.028.945 1.34l.004.004h0a2.01 2.01 0 0 0 .221.164l.006.003.002.002h0l.003.002h0l4.976 2.777m-6.383-4.703l.997 1.964c.08.067.162.13.253.187l.023.014 4.972 2.775.138-.237m-6.383-4.703l.374.281a14.05 14.05 0 0 1 .907.819l.244.232h0l.006.005a1.38 1.38 0 0 0 .129.1v.001l.034.02v.001-.001l4.96 2.769h.001l.01.006h0c.592.345 1.026.465 1.496.557h0l.405.07c.345.057.706.116 1.14.251h0l.002.001c.219.066.449.16.687.297l.26.155.931.586-.135-.021-.048-.008c-.412-.063-.806-.126-1.21-.269h0l-.003-.001-.644-.216h0l-.003-.001c-.386-.121-.74-.18-1.093-.238l-.391-.068h0c-.486-.091-1.03-.244-1.662-.616m-6.398-4.712l6.267 4.953.143-.233m-.027-.017l.004.002m-.004-.002h0m-8.909-4.028v.002-.001-.001zm27.361 25.627h.001l1.177-.331.046-.012 1.133-.316.751-.25c-.883.653-1.911 1.12-2.948 1.433h-.001l-.47.142-1.043.321c-.418.132-.836.3-1.255.468l-.277.111c-.516.205-1.043.403-1.609.544-.645.157-1.306.232-1.966.29l-.455.039-1.474.155-3.122.366-.194.019-2.829.319h0l-1.337.16h0l-.003.001-.184.021-1.532.119h-.209l.203-.058.74-.239.141-.047.761-.23h0l.004-.001a11.49 11.49 0 0 1 1.341-.269h0l2.879-.325.166-.016 3.096-.363 1.546-.162.415-.035c.647-.058 1.29-.129 1.884-.277.522-.126 1.03-.319 1.538-.521l.238-.095 1.33-.496 1.036-.319.485-.146zm-23.465 9.894l.239-.471.253-.497c.311-.622.598-1.211.717-1.656.117-.459.254-.843.404-1.169.448-.98.971-1.49 1.749-2.074h0l.519-.378.451-.327-.201.088-.895.41h-.001c-.846.418-1.613.975-2.119 2.051-.169.361-.314.777-.439 1.262-.04.165-.139.411-.256.673l-.42.873m-.002 1.215l-.989.169c-.073.172-.108.393-.044.597a.75.75 0 0 0 .039.104l.146-.122.002-.002h0l.029-.028.004-.004.004-.005.014-.016.022-.02m.776-.673l-.328-.328v.662c0 .08.036.136.043.147v.001c.012.018.024.032.029.037m.256-.519l-.246.529m.248-1.744l-.245-.123.245.123zm0 0l-.272.534-.467.955-.001.002h0c-.053.125-.072.272-.038.397m0 0l.02-.016a.3.3 0 0 1 .043-.025.33.33 0 0 1 .047-.017c.021-.006.05-.011.087-.008s.088.014.135.046c.023.015.043.033.059.054a.25.25 0 0 1 .037.059c.017.037.023.07.024.092a.3.3 0 0 1-.001.054l-.006.032-.005.02-.009.024-.014.027-.001.002-.004.011m-.413-.355l.413.355m1.124-11.916l-.86.721-.17.139c-.839.69-1.675 1.376-2.239 2.062v.001c-.437.534-.723 1.1-.8 1.761l4.069-4.684zm0 0l-.271.145-.72.389c-1.031.571-2.003 1.187-2.702 2.04v.001c-.482.586-.832 1.265-.921 2.047l4.614-4.622zm-1.008 11.417l.001.003v.002l-.001.007-.003.026v.043a.33.33 0 0 0 .007.042c.002.008.007.024.01.032s.014.031.02.042a.27.27 0 0 0 .104.101c.02.01.063.025.085.03a.44.44 0 0 0 .081.002.5.5 0 0 0 .061-.014c.028.02.052.076.062.157.011.092-.003.161-.017.189l-.004.009-.004.009c-.056.137-.13.219-.253.338-.242.224-.625.492-1.32.917h0l-.004.002c-.319.202-.718.213-1.033.095l-.004-.001c-.335-.12-.623-.341-.893-.621-.532-.566-.93-1.311-1.101-1.974-.227-.937-.114-2.043.067-3.179l.251-1.385.048-.253.233-1.414 3.606 6.795zm-.608.917l-.849.55-.006.004-.007.003c-.072.039-.158.078-.265.085a.79.79 0 0 1-.283-.041l-.009-.003h0c-.211-.071-.46-.251-.68-.483-.445-.461-.838-1.197-.966-1.728-.196-.763-.104-1.878.076-2.959l.243-1.343.053-.281.239-1.454 2.454 7.65zm0 0l.153.101.015.009.005.003.011.007.002.001-.005-.003.342-.428-.004-.003-.017-.022-.009-.045-.002-.029m-.491.409l.491-.418m-.387-.281a.51.51 0 0 1-.021-.059h0l-.001-.002c-.001-.015.002-.018.005-.021l.019-.013.045-.024a.24.24 0 0 1 .052-.015.25.25 0 0 1 .103 0c.018.004.056.017.074.026a.4.4 0 0 1 .072.054c.043.045.062.095.069.132s.006.065.005.083a.3.3 0 0 1-.008.044l-.008.025-.016.035-.005.003-.011.023-.003.005-.087-.069-.055-.044-.231-.183zm0 0l.017.034m-.017-.034l.017.034m0 0l.136.1-.136-.1zm.862.058c-.013.005-.028.01-.045.014a.29.29 0 0 1-.071.006c-.027-.001-.055-.006-.082-.016a.28.28 0 0 1-.123-.089c-.013-.016-.022-.032-.028-.045l-.015-.036-.008-.027-.004-.021c-.002-.012-.002-.022-.003-.03l.002-.042.003-.018v.002l.03.019.04.027.074.046.043.028.057.041a.6.6 0 0 1 .112.118l.005.007.006.007zm-.371-.32h.002l-.002.003.001-.003zm-.003.016h0zm-6.099-2.632h0l.002.003.012.018.882 1.218a7.87 7.87 0 0 1-1.216-.958h0l-.003-.002c-.616-.587-.981-1.205-1.248-1.68-.205-.386-.307-.631-.349-.846-.089-.577-.028-1.191.069-1.799l.09-.524.165-1.175c.018-.256-.008-.533-.035-.811l-.028-.316c-.027-.388-.012-.827.203-1.271h0c.7-1.456 1.929-2.722 3.289-3.917h0l.002-.001c.712-.637 1.532-1.137 2.362-1.599a20.46 20.46 0 0 1-2.001 2.012h0l-.002.001c-1.329 1.161-2.524 2.414-3.156 3.741l-.001.001c-.158.337-.173.635-.149.996l.03.343c.026.261.053.533.033.858-.033.411-.106.843-.18 1.278l-.078.473c-.09.568-.16 1.146-.074 1.609l.01.05.016.053.055.144a4.22 4.22 0 0 0 .211.439c.173.333.451.737.771 1.201l.317.461zm-1.005-14.875l1.538-1.327 1.68-1.449c.712-.614 1.35-1.318 1.967-2.059-.824.502-1.613 1.03-2.325 1.644h0l-3.36 2.898c-.033.028-.054.056-.071.095l-.178.391-1.007 2.41-.003.008h0v.001l-.98 3.038-.303.937-.001.002c-.033.138-.03.214-.023.359l.002.058a6.49 6.49 0 0 0 .073.588l.001.004h0c.098.663.336 1.564.785 2.365l.002.002h0c.166.304.354.59.555.844-.111-.313-.201-.638-.283-.955l-.001-.004h0l-.516-2.341-.001-.005h0l-.067-.538m2.516-6.966l-1.666 9.786-.513-2.327-.064-.511-.005-.092-.18-.049h-.094m2.521-6.807l-.041-.024-.004.005-.139.186.034.032m.149-.199l-.149.199m-2.368 6.767l.274-.018-.273.019zm0 0l-.005-.164m0 0v-.02l-.006-.002.009-.032.001-.002m-.004.056l.064-.003-.048-.013m2.357-6.587l-.086.188-1.004 2.397h0l-1.253 3.88h-.001a.17.17 0 0 0-.016.04l-.006.021-.004.021m2.369-6.547l-2.369 6.547m0 0v.001l-.001.003.092.036h-.075-.005m-.012-.04v-.001m0 .001v-.001m.011.041h-.014.014zm-.011-.041l.001-.004.001-.002h0 0l-.002.006zm1.281-3.966l-.001.002zm-1.806 3.807v-.002.002h0z"/><path d="M23.291 173.133l.685-4.25c.011-.066.043-.122.095-.165l.988-.819.988-.82.001-.001.635-.531 1.655-1.384h0c.593-.496 1.262-.905 1.968-1.288-.503.626-1.023 1.212-1.616 1.709l-1.145.958-1.145.957-.657.546-1.066.884-.125-.045-.095.165-.095.164.102.087-.628 3.911c-.006.035-.008.074-.009.096v.002l-.004.148.003.437h0v.008a12.61 12.61 0 0 1-.102 2.197h0v.002l-.056.41-.1-.402h0v-.002c-.184-.747-.298-1.594-.291-2.194h0v-.008l.017-.772zm.008 3.04l.262 1.007.145-8.343-.686 4.258c-.027.206-.025.459-.019.815-.008.629.111 1.5.299 2.263zm48.605 8.904h0c.574-.103 1.17-.121 1.805-.133-.549.32-1.116.569-1.709.673h0c-1.808.321-3.658.352-5.518-.02l-.529-.099-.165-.029-.767-.159c-.522-.131-1.04-.325-1.478-.659-.231-.183-.421-.437-.523-.733a2.07 2.07 0 0 1-.057-1.042l.015.042c.109.306.243.599.433.84.148.191.301.328.47.462.328.271.802.436 1.273.555l1.117.227.318.057c1.787.357 3.562.329 5.315.018zm-.069-25.84l-.168-.026-.455-.074-.925-.187c-1.04-.215-2.056-.425-3.139-.441a8.92 8.92 0 0 0-1.889.166c-.457.096-.963.335-1.42.684-.453.355-.827.784-.93 1.342-.358 2.164.102 4.34.537 6.397l.202.97.285 1.388 1.411 8.101 6.49-18.32zm0 0l-.093.004-.539.016h-.001l-2.064-.097-.083-.006-1.913-.096m4.694.179l-6.49 18.32.007.059.007.06h0l.1.835.227 2.698v.001c-.001.343-.017.685-.061 1.021a6.44 6.44 0 0 0 .251-1.002v-.001c.216-1.238.137-2.563.027-3.609l-.013-.122c-.3-2.737-.857-5.435-1.411-8.117l-.292-1.421-.168-.799c-.444-2.095-.916-4.319-.568-6.365.023-.175.119-.357.236-.516a2.41 2.41 0 0 1 .487-.486c.375-.292.861-.516 1.195-.58a8.33 8.33 0 0 1 1.772-.155m0 0l-.003.274.003-.274zm55.438 75.852h0l-3.011.564m3.011-.564l7.853-10.631m-7.853 10.631c2.809-.675 5.429-1.782 7.626-3.865.715-.652 1.044-1.802 1.057-3.096m-8.683 6.961l8.409-6.964m-11.42 7.528l-5.033.536h0l-9.767.925h0c-4.544.402-9.425.788-13.547.927 4.111.206 9.019.211 13.605.091h0a249.9 249.9 0 0 0 9.832-.448h0c2.689-.178 4.555-.349 5.13-.423 1.056-.138 2.119-.32 3.174-.573h0c2.987-.712 5.922-2.005 8.281-4.417 1.106-1.138 1.373-2.678 1.326-4.161-.055-1.491-.439-2.954-.838-4.068-1.655-4.595-3.262-6.946-6.324-11.38-.312-.441-.559-.959-.758-1.515a6.86 6.86 0 0 0 .633 1.594l.02.034c2.698 4.681 4.051 7.029 5.393 11.606m-11.127 11.272l-.04-.272.039.272zm11.127-11.272l-.263.077m.263-.077l-.263.077m.263-.077c.308 1.048.587 2.458.567 3.747m-.83-3.67c.303 1.032.575 2.414.556 3.667m.274.003l-.274-.003m.274.003l-.274-.003m-7.111-21.14l.044.898.273-.027-.117-.847c-.132-.971-.244-1.797-.435-2.264.155.477.191 1.282.235 2.24zM9.186 215.655h0l-2.023 3.59 2.023-3.59zm0 0l.103-.176 1.451-2.507-1.213 2.857-.182.415-1.413 3.346-.473 1.409a3.36 3.36 0 0 0-.099.501l-.011.172a.57.57 0 0 0 .005.079c.002.012.005.03.011.051.202 1.289 1.192 2.683 2.422 3.811 1.229 1.14 2.743 2.053 3.778 2.392l1.206.42h0c2.787.999 5.089 1.461 7.438 1.86l1.295.215 6.411 1.262c1.181.462 2.463.588 3.738.652l.084.004-.114.007c-1.3.072-2.592.051-3.851-.272l-.033-.009M9.186 215.655l20.553 16.489m0 0h-.035m.035 0h-.035m0 0c-5.695 0-10.13-.249-15.488-2.171l-1.183-.42c-1.367-.484-2.94-1.526-4.272-2.895-1.321-1.373-2.367-3.031-2.485-4.785-.021-.392.076-.731.233-1.179m23.195 11.45L6.51 220.694m0 0c.159-.431.381-.914.653-1.449l-.653 1.449zm96.148-17.052c.455 1.909 1.033 3.821 1.803 5.612.155.366.216.773.261 1.223-.328-.31-.602-.636-.764-1.006-.788-1.831-1.374-3.771-1.833-5.702-.09-.393-.069-.814-.002-1.259.242.38.441.746.535 1.132zm.017 11.585l-4.747 7.881c-.006.01-.01.019-.012.022v.001l-.023.047-.014.028-.014.028-.003.008-.004.007-.004.007-.002.003-.002.004-.007.014-.007.014-.001.002-.001.001v.001.001.001l-.001.001-.004.007-.007.015-.014.028-.007.014-.004.007-.002.004-.002.003-.004.007-.003.008-.007.014-.004.007v.001.001l-.001.001-.001.001v.001l-.001.001v.001l-.007.014-.004.007-.004.007-.004.007v.001.001.001.001l-.002.003-.004.008h-.001v.001.001.001l-.002.004-.007.014-.014.028-.014.029v.001h0l-.001.002-.001.002v.001.001l-.004.007-.002.003-.002.004v.002.001h-.001v.001.001l-.001.002c-.309.618-.723 1.187-1.181 1.749.174-.703.381-1.376.69-1.995l.028-.056.014-.029.014-.028.007-.014.002-.004v-.001-.001l.001-.001.004-.007.007-.015h0v-.001-.001-.001l.001-.001v-.001l.001-.002.004-.007.007-.014.007-.014.014-.029.028-.056.007-.014.004-.008.002-.003.002-.004.014-.028.004-.007.001-.001v-.001l.001-.002.002-.003.007-.014.014-.029.014-.028v-.001-.001l.001-.002.001-.001v-.001-.001l.003-.007.002-.004.002-.003.011-.021.002-.004-.25-.114.243.127c1.441-2.756 3.102-5.355 4.782-7.943.377-.581.853-1.098 1.371-1.606-.252.68-.535 1.326-.911 1.905h0zm-54.663 8.008l6.542 1.256-6.542-1.256zm0 0l6.612.712h0l2.082.237h0l4.165.298.758.044 4.942.428 5.001.805 1.053.184 6.041.852 6.364.436-37.018-3.996zm43.645 4.225l-2.943.306-3.707.013-6.389-.438c-2.051-.181-4.072-.509-6.087-.858l-1.078-.188-4.954-.798-4.903-.423-.729-.043-4.216-.302h0l-2.098-.238 37.103 2.969zm0 0l-.53-.003-2.414-.048m2.944.051l-2.944-.051m0 0l-1.469-.072-2.214-.106 3.683.178zm-51.89-15.127c-.331-.363-.626-.762-.919-1.178l-.216-.308-.053-.075c.586.317 1.139.705 1.59 1.189 1.079 1.17 2.06 2.459 2.914 3.671l2.66 3.984c.301.527.512 1.096.683 1.695-.421-.458-.813-.909-1.145-1.41l-2.646-3.953c-.846-1.198-1.816-2.473-2.87-3.615zm-1.182-3.156c-.005.004-.031.026-.11.049a1.39 1.39 0 0 1-.233.046l-.115-.237a.53.53 0 0 1-.034-.1l.379-.951.205-.541a.34.34 0 0 1 .105-.052 1.6 1.6 0 0 1 .234-.062l.128.225a.47.47 0 0 1 .039.101l-.206.541-.392.981zm71.635 46.938h.002c1.962-.295 4.823-1.215 6.792-3.597l2.162-2.705-2.091 2.228-.278.294-.001.001c-2.047 2.15-4.786 2.936-6.668 3.237h-.002l-1.19.128c-2.603.158-5.331-.62-7.998-1.662l-3.961-1.692-.101-.045-3.677-1.577-5.677-2.458-1.668-.763c-2.242-1.01-4.519-1.946-7.549-2.771-3.157-.856-7.059-1.503-10.345-1.428-1.012.023-1.988.132-2.961.241l-1.063.114c-1.053.105-2.101.183-3.166.128l49.443 12.327zm0 0c-.473.073-.895.114-1.243.133-2.738.145-5.519-.636-8.231-1.695-1.355-.53-2.685-1.126-3.981-1.707l-.044-.02c-1.277-.573-2.522-1.132-3.711-1.59-2.215-.863-4.017-1.693-5.731-2.481l-1.638-.749c-2.234-1.007-4.483-1.932-7.471-2.744-3.101-.844-6.994-1.485-10.188-1.409m42.239 12.262l-42.239-12.262m0 0c-.978.022-1.962.131-2.946.241l-1.037.111 3.983-.352zm-7.238.423c-2.864-.256-4.68-.817-6.418-1.481l9.673 1.41c-1.067.106-2.147.168-3.255.071zm-6.418-1.481l-.811-.319.834.247c1.803.522 3.589.919 6.429 1.065l-6.452-.993zm84.411-1.034h.001c.595.762 1.023 1.569 1.045 2.518.039.964-.411 2.146-.905 3.29l-.05.115.065-.105c.667-1.086 1.222-2.183 1.31-3.284.068-1.085-.394-2.058-1.034-2.873h-.001c-.592-.754-1.327-1.379-1.984-1.929l-.475-.399-2.526-2.009 1.468 1.476 1.238 1.257 1.848 1.943zm0 0c-.483-.616-1.088-1.204-1.643-1.744m1.643 1.744l-1.643-1.744m0 0l-.204-.199.204.199zm.589 16.004c4.498 16.413 5.549 33.184 6.632 50.481l.641 9.87c.495 7.074 1.581 14.092 2.666 21.088l.017.108c1.079 6.955 2.154 13.889 2.638 20.811l.152 2.554M134.739 255.97l12.746 104.912M134.739 255.97c5.086 16.856 6.481 34.272 7.916 52.188l.658 8.062c.565 6.678 1.656 13.343 2.749 20.017l.152.927c1.143 6.989 2.262 13.989 2.76 21.049l.153 2.591c.143 3.088-.009 6.12-.203 9.128l-.103 1.544c-.166 2.48-.332 4.948-.351 7.406l.266.009h.007L134.739 255.97zm12.746 104.912c.146 2.979.003 5.958-.176 8.95l-.078 1.272c-.158 2.575-.317 5.16-.32 7.779m.574-18.001l-.574 18.001m0 0h0m0 0h0m0 .006h0 0 0 0v.001h0 0v-.001zm0 0h0m0 0h0m0 0h0m0 0h0m0 0h0m0 0h0m0 0v-.001m0 .001v-.001m0 0h0m0 0h0m0 0h0m0 0h0m0 0h0m0 0h0m0 0h0m0 0h0m0 0h0m0 0h0m0 0h0m0 0h0m0 0h0m0 0h0m0 0v-.001m0 .001v-.001m0 0h0m0 0h0m0 0h0m0 0h0m0 0h0m0 0h0m0 0h0m0 0h0m0 0h0m0 0h0m0 0h0m0 0h0m0 0v-.001m0 .001v-.001m0 0h0m0 0h0m0 0h0m0 0h0m0 0h0m0 0h0m0 0h0m0 0h0m0 0h0m0 0h0m0 0h0m0 0h0m0 0v-.001m0 .001v-.001m0 0h0m0 0h0m0 0h0m0 0h0m0 0h0m0 0h0m0 0h0m0 0h0m0 0h0m0 0h0m0 0h0m0 0h0m0 0v-.001m0 .001v-.001m0 0h0m0 0h0m0 0h0m0 0h0m0 0h0m0 0h0m0 0h0m0 0h0m0 0h0m0 0h0m0 0h0m0 0h0m0 0v-.001m0 .001v-.001m0 0h0m0 0h0m0 0h0m0 0h0m0 0h0m0 0h0m0 0h0m0 0h0m0 0h0m0 0h0m0 0h0m0 0h0m1.559.008l-.114 43.832c-.124 12.039 1.227 24.478 2.532 36.496l.065.597.172 1.481-.21-1.476-.034-.258c-1.627-12.091-3.31-24.604-3.435-36.837v-.001l-.535-43.835 1.559.001zm-42.909 90.268c-.346-8.166-.941-16.499-2.05-25.023-1.348-10.387-3.345-20.198-5.34-29.995l-.19-.933c-2.057-10.11-4.09-20.224-5.387-30.979l-.053-.443 13.019 87.373zm0 0c-.101-8.173-.456-16.525-1.347-25.105-1.128-10.817-2.989-21.007-4.887-31.153l-.316-1.687c-1.794-9.578-3.586-19.147-4.784-29.181l-.053-.441.272-.033-.272.032-2.105-16.191-3.424-28.467c-1.475-16.949-2.798-24.11-6.888-39.642-.262-.992-.653-2.192-1.126-3.52.434 1.342.789 2.553 1.019 3.547l23.91 171.841zM70.758 343.228l.274.017-.274-.017c-.427 6.902-.645 14.256-.789 21.667l-.222 14.962-.181 12.636c-.297 16.286.721 31.603 2.226 47.385-2.064-15.721-3.579-31.019-3.596-47.397l-.005-3.886.133-23.732-.274-.005.274.005c.144-7.428.432-14.805.969-21.737l-.273-.021.273.021c1.345-17.373.955-35.475-.401-53.164 1.982 17.632 2.951 35.755 1.866 53.266zM8.602 294.385c-2.369-13.731-3.582-22.862-3.405-32.043.191-9.182 1.774-18.263 5.144-31.826-2.24 13.797-3.323 22.845-3.499 31.859-.188 9.005.531 18.131 1.76 32.01zM25.03 461.496l.001-.008-.001.008zm0 0l-.003.041m.003-.041l-1.093-.178c.359.092.719.184 1.089.219m0 0l.002-.016-.002.016zm-2.696-82.392c2.063 16.776 3.147 36.88 3.527 71.572-1.798-34.649-3.196-54.676-5.143-71.378l-.272.031.272-.031a438.14 438.14 0 0 0-1.832-13.797h0l-6.332-45.205 4.293 24.861 3.474 20.117h0a317.94 317.94 0 0 1 2.013 13.83l.234-.029-.234.029zm2.879 82.359l-.179-.016-.002.02-.002.029c.069.006.144.017.223.028.337.049.736.106.949-.212l-.109-.011c-.168.232-.549.194-.881.162zm119.607 26.763h0c-2.172 1.161-4.537 1.835-6.757 1.745-1.292-.043-2.579-.365-3.872-.687l-.296-.074c-1.403-.348-2.825-.677-4.336-.678-.932.008-1.833.164-2.724.342l-.448.09-2.182.364c-2.678.258-5.689.327-8.365.096m28.98-1.198l-28.956.925m28.956-.925c1.89-1.016 3.734-2.304 5.276-3.795m-5.276 3.795l6.29-5.277c-.301.502-.641.999-1.014 1.482m-34.256 4.993l.024-.273m-.024.273l.024-.273m-.024.273l-.154-.015h-.001-.002c-1.924-.197-4.151-.823-6.247-1.552m6.428 1.294l-.153-.015h0c-2.414-.247-5.326-1.182-7.853-2.147l1.578.868m0 0l-1.697-.62-1.444-.867 9.306 3.858m-6.165-2.371c1.968 1.022 4.13 1.893 6.192 2.098m0 0l-.027.273m.027-.273l-.027.273m.027-.273l.163.015h.002c2.724.234 5.753.164 8.465-.096m-8.657.354l.169.015c2.744.236 5.79.165 8.515-.097.801-.079 1.578-.236 2.338-.39 1.009-.204 1.985-.401 2.94-.401m-5.305.519l.027.272-.026-.272zm0 0c.786-.079 1.549-.233 2.309-.386l.375-.076c.877-.174 1.754-.331 2.619-.332m0 0l.002.275m-.002-.275l.002.275m-.002-.275c1.418-.015 2.812.32 4.201.665l.15.038c1.35.335 2.702.672 4.129.737m-8.478-1.165c1.43-.016 2.842.335 4.291.696 1.344.334 2.721.677 4.175.742m0 0l.011-.273m-.011.273c2.413.095 4.903-.627 7.178-1.841 2.576-1.368 4.741-3.541 6.127-5.843a17.84 17.84 0 0 1-1.238 1.322m-12.067 6.362l.013-.273m-.001 0c2.352.091 4.793-.613 7.037-1.81l.001-.001c1.975-1.048 3.705-2.581 5.017-4.278m-122.459-20.61l.095-.009.776-.064c.237-.004.483.014.686.095.627.223 1.204.55 1.775.882l.149.087 1.64.871a11.53 11.53 0 0 0 1.321.472l-6.441-2.334zm0 0l.093-.023.146-.035c.473-.114.909-.219 1.368-.115.679.161 1.303.43 1.912.721l.449.218 1.351.614m-5.318-1.38l5.318 1.379m.001.001l1.277.429h0c1.241.365 2.588.598 3.836.781 7.328 1.083 15.756 2.067 22.682-1.08 1.509-.683 2.963-1.64 4.331-2.708l-32.125 2.578zm37.497-7.055a51.92 51.92 0 0 1-1.339 1.145l-.771.649 2.11-1.794zm0 0c-.543.636-1.135 1.251-1.77 1.909l-.118.122c-.958.992-2.005 1.988-3.146 2.878-1.392 1.087-2.876 2.066-4.442 2.775-7.158 3.23-15.615 2.2-22.988 1.123-1.261-.186-2.624-.419-3.91-.797l36.374-8.01z"/><path d="M66.185 269.134c.372 1.054.634 2.244.649 3.375l-.244-.744-.42-1.107-.049-.124-.455-1.221v-.001l-.061-.177-.29-.849h0c-1.601-4.801-4.392-8.591-7.968-11.796l-.001-.001c-.778-.692-1.522-1.431-2.286-2.191l-.193-.191c1.028.57 1.996 1.209 2.845 1.973v.001c3.628 3.248 6.492 7.134 8.123 12.032h0l.27.789.08.23v.002zm-1.13-.761l.291.852.061.177a31.46 31.46 0 0 0 .508 1.356c.352.898.701 1.789.868 2.703l-1.728-5.088z"/><path d="M59.38 250.669h0a19.95 19.95 0 0 1-.773-4.038l.32.947.172.501.805 2.43h0l1.118 3.447.638 1.928c1.398 4.305 2.725 8.363 4.587 12.256v.001c.408.848.79 1.715 1.181 2.602l.094.215.422.951c-.857-1.127-1.606-2.297-2.192-3.532v-.001c-1.883-3.94-3.212-8.013-4.613-12.322l-.261.084.261-.084-.641-1.937-1.118-3.448zm13.393 24.511h0c2.649.741 5.347 1.063 8.026 1.372l1.249.166.09.013 1.183.161h0a6.62 6.62 0 0 0 2.322-.138l-.554-.103-.321-.064-1.38-.239h0l-1.159-.158-.103-.015-1.263-.168.031-.272c-2.674-.308-5.334-.628-7.899-1.347l-.222.792zm0 0h-.001c-.75-.206-1.465-.562-2.148-1.002l2.149 1.002zm-6.081-24.312v-.001c-.105-.856-.328-1.73-.555-2.62l-.175-.691-.222-.968.025.995c.055.966.188 1.935.31 2.819l.073.534v.002l.035.294c.556 5.201 2.568 9.872 4.533 14.437l.082.19-4.106-14.991zm0 0l.036.305m-.036-.305l6.45 18.881m0 0c-.607-1.239-1.162-2.53-1.71-3.804l-.131-.303-.025-.058c-1.982-4.596-4.003-9.279-4.548-14.411m6.414 18.576l.457.952c.462.967.922 1.931 1.445 2.856-.939-1.05-1.751-2.263-2.394-3.567-.601-1.228-1.145-2.49-1.682-3.736l-.17-.395 2.344 3.89zm-6.414-18.576l.273-.029-.273.029zm8.556 28.813h0l-.001-.003c-.335-.828-.57-1.719-.788-2.67.528.821.981 1.632 1.299 2.47h0l.001.003 2.722 7.483 1.335 3.788v.001l.003.007c.351.895.58 1.87.777 2.919-.541-.921-.995-1.819-1.293-2.734h0l-.003-.007-1.334-3.785-2.718-7.472zm-4.266 183.176h0l1.91 8.617.497 1.935.002.009.504 1.964m-2.914-12.525l-.475-3.527c-.04 1.206-.019 2.411.205 3.578l1.913 8.629.498 1.941.505 1.967.503 1.775.46 1.598.072-.782m-3.682-15.179c-.174-.905-.223-1.836-.216-2.78m.216 2.78l-.216-2.78m3.13 15.305l-.267.063.267-.063zm0 0l.498 1.757.082.267.188.63m0 0l.207.766m-.207-.766a9.75 9.75 0 0 0-.235-2.781h0l-.507-1.978-.008-.032-.488-1.898 1.445 7.455M70.8 460.382c.305.893.581 1.775.754 2.676l1.905 8.594-2.66-11.27zm4.105 18.725c.147-1.188.106-2.435-.175-3.611l.175 3.611zm-3.215 6.786l-.529.732v-.001l-.004.007-.002.003-.006.009h0l-1.005 1.527-.606.921-.003.004-.003.003-.005.008-3.994 5.507c-.458.629-.99 1.199-1.553 1.761.317-.73.668-1.431 1.107-2.076l3.989-5.505.001.001.006-.009.011-.016h0l.798-1.211.813-1.235h0l.004-.007.002-.003v-.001l.536-.74.536-.741h0c.479-.662 1.054-1.258 1.669-1.838-.359.765-.745 1.497-1.225 2.159h0l-.536.741zm-46.729 25.074c-.155-3.344.305-7.416 1.833-10.49.385-.767.913-1.376 1.429-1.972l.283-.328-.208-.179-3.336 12.969zm0 0l.013.243c.031.611.069 1.34.163 2.074.107.835.284 1.652.593 2.289.511 1.016 1.211 2.272 1.822 2.971.658.737 1.999 1.978 2.88 2.494.762.433 1.795.713 3.067 1.058l.115.031c4.286 1.145 9.008-.208 12.77-2.027 2.472-1.2 4.785-2.6 6.884-4.24h0c3.303-2.581 6.008-5.838 7.868-9.787v-.001a12.62 12.62 0 0 0 .345-.803c-.128.269-.26.529-.399.777m-36.12 4.921l36.12-4.921m0 0c-2.124 3.809-4.905 6.843-8.152 9.382h0c-2.064 1.613-4.343 2.994-6.785 4.179m14.938-13.561l-14.937 13.561m0 0c-3.671 1.787-8.339 3.092-12.387 1.99m12.387-1.99l-12.387 1.99m0 0c-1.289-.344-2.407-.658-3.052-1.034-.377-.212-.922-.648-1.432-1.099s-1.017-.947-1.311-1.283c-.522-.583-1.263-1.889-1.742-2.853-.275-.531-.436-1.322-.537-2.111-.103-.8-.148-1.636-.174-2.276l8.248 10.656zm-3.913-25.641c.152-.576.127-1.148.095-1.707l-.006-.113c-.027-.531-.052-1.037.128-1.566.513-1.473 1.287-2.792 2.057-4.106l.935-1.638-3.21 9.13zm8.092-21.625c-.74 3.847-2.093 7.603-3.65 11.227h0a18.3 18.3 0 0 1-.75 1.529 59.51 59.51 0 0 1-.928 1.624l-.684 1.184c-.524.929-1.006 1.872-1.345 2.854-.145.405-.126.918-.093 1.47l.002.031c.029.558.062 1.174-.114 1.846-.26.981-.844 1.724-1.452 2.437l-.217.251c-.535.616-1.073 1.236-1.422 1.938l10.652-26.391zm74.046 18.79l-.036-1.496-1.024 6.803-.053.393-.001.009c-.079.587-.228 1.21-.382 1.854l-.361 1.669m1.857-9.232l-.788 5.342-.001.001-.052.394-.001.009-.272-.037.272.037c-.076.557-.211 1.142-.352 1.732l-.035.147-.358 1.653m1.587-9.278l.239-1.479c.071 2.305.086 4.64-.212 6.928m-.027-5.449c.028 1.814-.012 3.629-.245 5.413m-1.342 3.865l-.27-.046m.27.046l-.27-.046m.27.046c-.207 1.206-.24 2.431.375 3.556m-.645-3.602c-.211 1.226-.255 2.527.405 3.734m0 0l.24-.132m-.24.132c3.026 5.504 8.638 7.993 14.173 10.099m-14.173-10.099l.241-.132m-.001 0c2.973 5.406 8.491 7.867 14.031 9.975m-.098.256l.098-.256m-.098.256c1.502.569 3.028 1.021 4.524 1.465l2.021.61c-.433-.235-.875-.465-1.324-.689m-5.221-1.386l.098-.256m0 0c1.315.498 2.65.907 3.976 1.301l.527.157.62.184m0 0l1.432.436c-1.967-1.066-4.101-2.024-6.263-2.847m4.831 2.411c-1.58-.791-3.245-1.514-4.928-2.155m0 0l.097-.256m-.097.256l.097-.256m-.097.256c-5.514-2.087-10.906-4.536-13.745-9.726m13.842 9.47c-5.518-2.089-10.816-4.509-13.601-9.602m0 0l-.24.132m.24-.132c-.481-.875-.483-1.884-.286-3.021m.286 3.021l-.241.132m0 0c-.525-.957-.515-2.042-.316-3.199m.271.046l-.271-.046m.271.046c.085-.502.209-1.021.335-1.549.158-.66.32-1.335.413-2.01l.055-.409m-.803 3.968l-.271-.046m0 0c.088-.512.214-1.04.34-1.566l.047-.199c.142-.597.278-1.192.361-1.786m.326-.371l-.272-.036m.272.036l-.272-.036m-.054.407l.271.038-.271-.038zm0 0l.054-.407m62.01 16.721l-.001-.001c-.846-1.194-1.77-2.3-2.594-3.286l-.209-.251c-1.199-1.434-2.543-2.695-3.924-3.912l-1.406-1.222-2.718-2.41-4.457-4.56-2.807-2.951.195-.192-2.046-2.184c-1.754-2.025-3.549-4.182-4.416-6.612l24.383 27.581zm0 0c1.282 1.786 2.245 3.857 2.374 5.877m-2.374-5.877l2.374 5.877m0 0c-.419-1.984-1.598-3.812-2.821-5.56l-.001-.001c-.835-1.178-1.762-2.287-2.59-3.278l-.187-.224c-1.167-1.4-2.496-2.645-3.866-3.853l-1.397-1.214-2.739-2.429-4.476-4.58-2.804-2.945-2.078-2.221-.001-.001c-1.41-1.596-2.648-3.496-3.343-5.459.978 1.846 2.392 3.526 3.755 5.098l22.548 26.667zm.019 6.911v-.001c.564-1.387 1.045-2.757 1.146-4.161.088 1.406-.22 2.875-.714 4.321-.253.726-.842 1.616-1.432 2.29l-.394.416-.002.001c-.872.856-1.647 1.276-2.788 1.583h-.002c-1.422.394-3.476.763-4.942.852-2.187.13-6.516.066-8.702-.018-.617-.025-2.157-.197-4.232-.582-2.067-.384-4.637-.976-7.251-1.837-1.28-.424-2.444-.912-3.496-1.455a18.84 18.84 0 0 1-4.987-3.806 27.75 27.75 0 0 0 5.232 3.324c1.034.519 2.168 1.004 3.422 1.415 2.582.852 5.134 1.44 7.18 1.82l4.153.573 8.648.019c1.393-.082 3.467-.454 4.829-.833h.002c.556-.159.978-.312 1.373-.534s.751-.507 1.181-.915l.001-.002.363-.384c.538-.61 1.171-1.501 1.412-2.086zM96.793 150.449l.094-.257-.496-.2h-.001c-.733-.333-1.35-.82-1.947-1.349l.785.314 1.37.539h0l.2.076.276.105c1.403.514 2.381.517 2.999.227.624-.29.98-.866 1.163-1.714.184-.842.145-1.921-.015-3.048s-.445-2.335-.77-3.439l-.446-2.089-.048-.265c.365.624.741 1.369 1.014 2.201.667 2.274 1.187 4.85.802 6.753-.191.933-.65 1.727-1.472 2.1-.831.375-1.93.328-3.415-.212l-.094.258zm0 0c1.513.55 2.696.622 3.622.204l-6.681-2.284c.765.704 1.555 1.424 2.543 1.872l.517.208zM84.337 61.605v-.001c.665-1.668 1.235-3.325 1.513-5.322a13.42 13.42 0 0 1-1.005 5.527h0c-.585 1.455-1.312 2.858-2.094 4.368l-.674 1.309c-1.076 2.103-3.659 5.769-5.178 7.532-2.303 2.667-4.708 4.947-7.341 6.961h0c-1.462 1.121-3.061 2.065-4.767 2.903a171.02 171.02 0 0 0 3.827-2.874l.607-.465h0c2.603-1.992 4.976-4.243 7.259-6.885 1.463-1.688 4.086-5.418 5.104-7.421l.659-1.28c.788-1.521 1.518-2.932 2.089-4.354zm1.898-7.249c-.102.539-.156 1.076-.021 1.565a40.52 40.52 0 0 0 1.838 5.23c.196.465.568.853.975 1.218l-2.791-8.013zm2.781 7.631c-.312-.298-.568-.6-.713-.942v-.001c-.72-1.693-1.341-3.417-1.825-5.195h0v-.001c-.099-.358-.083-.755-.018-1.182.25.354.452.684.547 1.038h0v.001c.477 1.751 1.088 3.45 1.801 5.125h0c.144.337.19.724.208 1.156zm-47.735 5.219h0l2.85 4.139.392.529a63.99 63.99 0 0 0 5.918 6.931l3.135 2.946c1.048.896 2.047 1.717 3.057 2.336l.002.001a15.49 15.49 0 0 0 2.63 1.327c-.75-.472-1.541-1.053-2.371-1.699l-.002-.001-.678-.531-2.279-1.848m-12.654-14.13L54.114 81.13M41.281 67.206l-.001-.001c-.54-.858-1.105-1.842-1.634-3.004l-.565-1.231-.358-.779m2.558 5.016l-2.558-5.016m15.212 19.147l.18-.207m-.18.207l.18-.207m-.18.207l-3.104-2.916a63.37 63.37 0 0 1-5.866-6.871m9.149 9.58l-3.088-2.902a63.08 63.08 0 0 1-5.84-6.841l-.221.162m0 0l-.391-.528-2.827-4.105-.001-.002h0l-.414-.682-1.361-2.209-1.22-1.794-.029-.04m6.242 9.36l-6.242-9.36"/></g><g stroke="#fff" class="E D"><path d="M78.891 17.135c.04 1.492-.041 3.018-.27 4.345-.112.504-.326.963-.575 1.358v-.175-.078l.044-1.195a23.44 23.44 0 0 0 .254-4.241l-.153-2.123-.148-.98-.019-.107-.124-.754-.054-.63-.034-.421-.004-.044c.209.271.405.6.553.976.182.483.258 1.038.342 1.657l.033.239.157 2.173zM34.73 48.944l-.003-.002c-1.434-.797-2.69-1.643-3.381-2.301-.293-.288-.679-.584-1.115-.918-1.442-1.106-3.446-2.644-4.571-5.777-.331-.94-.617-2.007-.718-3.241-.052-.753-.009-1.569.116-2.445l.35 2.207.031.181c.185 1.184.405 2.217.737 3.113 1.089 2.993 2.983 4.453 4.431 5.57l1.12.916c.603.583 1.879 1.45 3.266 2.217l.003.002 1.577.891.912.524.577.318c-1.069-.227-2.278-.65-3.332-1.253z"/></g><g class="B C D"><path d="M26.925 46.011l-.253.105.084.203.722 1.676c.502 1.085 1.095 2.103 1.933 2.946 1.91 1.926 4.417 3.326 6.86 4.691l1.736.982c2.726 1.589 6.101 3.377 9.236 3.578 7.17.483 14.294-2.704 20.549-6.219h0l.536-.302m-41.404-7.659l-.253.106c-1.132-2.704-1.774-5.079-2.007-7.631-.008 2.573.457 5.047 1.524 7.825a31.96 31.96 0 0 0 .792 1.915c.517 1.117 1.138 2.192 2.042 3.102 1.986 1.993 4.472 3.381 6.89 4.73l1.82 1.03c2.773 1.605 6.134 3.421 9.474 3.651 7.38.484 14.548-2.753 20.853-6.288l.539-.306c2.247-1.3 4.019-3.055 5.645-4.917.425-.487.843-.984 1.257-1.483l-1.38 1.36c-1.767 1.713-3.629 3.361-5.792 4.567m-41.404-7.659l.084.203.718 1.666-2.886-12.138c-.056 3.649.572 6.661 2.084 10.269zm41.404 7.659l-.133-.239.134.239zm8.544-42.721l.555.496 1.32 1.14h0l2.18 1.801c4.1 3.489 7.27 8.133 6.64 13.831-.12 1.179-.657 2.372-1.272 3.534l-.63 1.154c-.431.776-.854 1.537-1.189 2.299l-.202.473-.012.028-.001.002a54.42 54.42 0 0 0-.68 1.674l-.083.21c-.255.648-.519 1.308-.808 1.949a18.02 18.02 0 0 1-.534 1.09 13.77 13.77 0 0 0 .706-.992c.776-1.196 1.407-2.524 1.903-3.716l.001-.002.213-.498-8.108-24.472zm0 0c.368.223.731.46 1.1.7l.99.634c.803.502 1.587 1.061 2.321 1.685 4.171 3.543 7.484 8.359 6.829 14.309l-11.24-17.328zm12.034 36.814h0l.001.006c.092.675-.045 1.276-.248 2.135-.197.789-.615 1.57-1.305 2.006-.274.167-.647.151-.939-.015a1.98 1.98 0 0 0 .553-.368l.1-.082c.253-.148.479-.408.656-.694a3.27 3.27 0 0 0 .402-.974c.204-.844.314-1.4.237-1.932h0l-.002-.01c-.022-.122-.02-.273-.005-.507l.011-.167.015-.218c.32.261.491.539.523.82zm-31.57 22.419h0c.123-.037.279.045.318.204h0c.039.159-.062.304-.188.328h0l-2.306.447-.013.002-.001-.003-.043.013h0c-.322.102-.685.189-1.051.182h-.002c-.37-.004-.747-.128-.996-.436h0l-.005-.006-.004-.005c-.235-.325-.381-.655-.471-.99a2.76 2.76 0 0 0 .566.936l.025-.022-.022.023c.269.257.571.312.908.289h.002c.326-.025.682-.148.973-.275l.03-.009h.001l1.14-.339 1.141-.34zm-5.178-2.642l-.274.003-.082-1.616-.079-1.559.545-.054.237 1.582h0l.237 1.582.003.02-.586.043zm5.361 3.444c.297-.058.474-.369.402-.663l-.402.663zm4.165 3.424l-.022-.007.022.003 1.074.178.731.126c.593.096 1.184.168 1.748.149.111-.004.242.112.233.286s-.157.279-.269.264l-.037.272.038-.272c-.879-.121-1.693-.396-2.518-.674l-.998-.325zm-7.44 2.737c-.282.11-.349.483-.194.742m.194-.742l.099.255c.615-.239 1.147-.687 1.659-1.118l.061-.052.032-.027-.025.035c-.406.576-.806 1.137-1.431 1.63-.036.028-.091.042-.165.021a.34.34 0 0 1-.189-.144h0a.31.31 0 0 1-.035-.224c.016-.068.052-.106.094-.122l-.1-.255zm0 0c.572-.223 1.072-.644 1.596-1.084l.9-.714-2.689 2.541m0 0c.155.26.52.385.758.198l-.758-.198z"/></g><mask id="B" class="E"><path d="M88.353 25.34c1.07.765 2.351 1.702 3.69 2.027.597.14 1.206.044 1.736.131.226.032.669.024 1.079.069a2.15 2.15 0 0 1 .52.108c.134.05.17.108.166.119s.004.04-.05.113a1.19 1.19 0 0 1-.27.231c-.237.159-.537.292-.677.356l-2.333 1.054-1.893.87c-.216.099-.2.428.003.499.29.101.702.818 1.052 1.22.883.962 1.836 1.944 2.865 2.777.172.137.489.327.768.539a2.37 2.37 0 0 1 .341.3c.039.044.066.083.078.108.007.012.009.021.01.024.011.159-.241.531-.571.876-.327.356-.7.699-.903 1.035l-.184.323c-.054.045-.009.036-.106.035-.656-.099-1.321-.589-2.159-.735-.063-.01-.218-.048-.383-.062-.162-.004-.37-.035-.571.178-.171.258-.127.483-.118.731l.073.573.275 3.06.386-.251c-.239-.099-.601-.457-.909-.864a8.08 8.08 0 0 1-.741-1.156l-.32-.633c-.077-.139-.154-.271-.234-.375-.043-.053-.079-.1-.156-.151a.33.33 0 0 0-.192-.052.31.31 0 0 0-.234.13c-.26.379-.272.844-.239 1.285s.142.873.197 1.162c.379 1.992 1.514 3.032 2.976 4.184.504.383 1.007 1.093 1.89 1.205l-.048-.535c-.612.19-1.504.013-2.295.04l-.341.032-3.109.325c-.14.012-.606-.022-1.049-.014-.224.005-.445.02-.64.061s-.373.099-.496.278c-.225.376-.223.888-.187 1.405l.163 1.34.154-.148c-.173-.007-.503-.186-.833-.365-.335-.177-.68-.356-.977-.342-.164.017-.255.159-.344.338s-.157.421-.218.669a10.19 10.19 0 0 0-.209 1.195 10.17 10.17 0 0 1 .288-1.173 3.62 3.62 0 0 1 .253-.633c.088-.167.191-.252.233-.24.225-.001.547.18.864.377.322.196.627.407.912.451.078.012.158-.059.154-.148l-.088-1.338c-.016-.491.04-.967.184-1.158 0 0 .014-.014.055-.031s.1-.034.174-.046c.149-.025.35-.032.558-.028l1.085.049 3.124-.277.326-.032c.676-.035 1.596.171 2.412-.061.124-.035.21-.163.195-.29s-.119-.236-.243-.246c-.567-.047-1.038-.622-1.609-1.09-1.46-1.159-2.421-2.045-2.778-3.858l-.189-1.105c-.037-.39.006-.746.139-.921-.024.042-.109.101-.185.1s-.111-.022-.126-.03c-.008-.004.001.007.013.021a2.59 2.59 0 0 1 .187.304l.313.619c.169.33.458.802.795 1.241s.711.84 1.12 1.03a.28.28 0 0 0 .386-.25c-.001-1.077-.174-2.089-.277-3.115l-.072-.565c-.009-.103-.012-.201-.006-.27.002-.034.008-.061.012-.074-.082.063-.024.009.09.029.111.009.241.04.342.057.664.098 1.327.586 2.157.734.254.056.513-.075.621-.228.118-.149.172-.295.232-.393.122-.216.491-.574.833-.94.338-.378.679-.751.717-1.23.002-.227-.11-.377-.225-.513a2.95 2.95 0 0 0-.422-.376l-.753-.527c-.995-.805-1.931-1.767-2.806-2.722-.297-.303-.653-1.063-1.233-1.35l.003.499 1.893-.87 2.323-1.086c.138-.069.457-.219.737-.418.14-.101.274-.213.374-.352s.174-.325.112-.526c-.075-.235-.272-.345-.46-.41-.194-.065-.413-.093-.635-.107-.44-.027-.908.002-1.067-.015-.613-.061-1.197.066-1.728-.031-1.279-.226-2.629-1.067-3.746-1.76z"/></mask><g class="B C"><path d="M88.353 25.34c1.07.765 2.351 1.702 3.69 2.027.597.14 1.206.044 1.736.131.226.032.669.024 1.079.069a2.15 2.15 0 0 1 .52.108c.134.05.17.108.166.119s.004.04-.05.113a1.19 1.19 0 0 1-.27.231c-.237.159-.537.292-.677.356l-2.333 1.054-1.893.87c-.216.099-.2.428.003.499.29.101.702.818 1.052 1.22.883.962 1.836 1.944 2.865 2.777.172.137.489.327.768.539a2.37 2.37 0 0 1 .341.3c.039.044.066.083.078.108.007.012.009.021.01.024.011.159-.241.531-.571.876-.327.356-.7.699-.903 1.035l-.184.323c-.054.045-.009.036-.106.035-.656-.099-1.321-.589-2.159-.735-.063-.01-.218-.048-.383-.062-.162-.004-.37-.035-.571.178-.171.258-.127.483-.118.731l.073.573.275 3.06.386-.251c-.239-.099-.601-.457-.909-.864a8.08 8.08 0 0 1-.741-1.156l-.32-.633c-.077-.139-.154-.271-.234-.375-.043-.053-.079-.1-.156-.151a.33.33 0 0 0-.192-.052.31.31 0 0 0-.234.13c-.26.379-.272.844-.239 1.285s.142.873.197 1.162c.379 1.992 1.514 3.032 2.976 4.184.504.383 1.007 1.093 1.89 1.205l-.048-.535c-.612.19-1.504.013-2.295.04l-.341.032-3.109.325c-.14.012-.606-.022-1.049-.014-.224.005-.445.02-.64.061s-.373.099-.496.278c-.225.376-.223.888-.187 1.405l.163 1.34.154-.148c-.173-.007-.503-.186-.833-.365-.335-.177-.68-.356-.977-.342-.164.017-.255.159-.344.338s-.157.421-.218.669a10.19 10.19 0 0 0-.209 1.195 10.17 10.17 0 0 1 .288-1.173 3.62 3.62 0 0 1 .253-.633c.088-.167.191-.252.233-.24.225-.001.547.18.864.377.322.196.627.407.912.451.078.012.158-.059.154-.148l-.088-1.338c-.016-.491.04-.967.184-1.158 0 0 .014-.014.055-.031s.1-.034.174-.046c.149-.025.35-.032.558-.028l1.085.049 3.124-.277.326-.032c.676-.035 1.596.171 2.412-.061.124-.035.21-.163.195-.29s-.119-.236-.243-.246c-.567-.047-1.038-.622-1.609-1.09-1.46-1.159-2.421-2.045-2.778-3.858l-.189-1.105c-.037-.39.006-.746.139-.921-.024.042-.109.101-.185.1s-.111-.022-.126-.03c-.008-.004.001.007.013.021a2.59 2.59 0 0 1 .187.304l.313.619c.169.33.458.802.795 1.241s.711.84 1.12 1.03a.28.28 0 0 0 .386-.25c-.001-1.077-.174-2.089-.277-3.115l-.072-.565c-.009-.103-.012-.201-.006-.27.002-.034.008-.061.012-.074-.082.063-.024.009.09.029.111.009.241.04.342.057.664.098 1.327.586 2.157.734.254.056.513-.075.621-.228.118-.149.172-.295.232-.393.122-.216.491-.574.833-.94.338-.378.679-.751.717-1.23.002-.227-.11-.377-.225-.513a2.95 2.95 0 0 0-.422-.376l-.753-.527c-.995-.805-1.931-1.767-2.806-2.722-.297-.303-.653-1.063-1.233-1.35l.003.499 1.893-.87 2.323-1.086c.138-.069.457-.219.737-.418.14-.101.274-.213.374-.352s.174-.325.112-.526c-.075-.235-.272-.345-.46-.41-.194-.065-.413-.093-.635-.107-.44-.027-.908.002-1.067-.015-.613-.061-1.197.066-1.728-.031-1.279-.226-2.629-1.067-3.746-1.76z" stroke-width="1.097" mask="url(#B)"/><g class="D"><path d="M27.336 61.507l.094.209-.01-.181c-.029.002-.06-.01-.085-.028zm0 0l-.053-.118c-.002.023.002.045.01.063l.003.006h0c.008.019.023.035.04.049zm1.16-.335a5.97 5.97 0 0 0 .674-.469 9.07 9.07 0 0 0 1.357-1.365 2.82 2.82 0 0 0 .137-.206l.084-.132.175.111.099-.332v-.001a1.92 1.92 0 0 0 .047-.249l-.001-.001a.52.52 0 0 0 .006-.087v-.005h0l-.001-.023c-.001-.003-.008-.024-.012-.052a.5.5 0 0 1 .011-.12.45.45 0 0 1 .317-.184.49.49 0 0 1 .127.064c.009.008.022.022.027.028l.008.009.013.018.004.009m-3.071 2.986l3.125-2.742a.65.65 0 0 0-.024-.176h0l-.004-.011-.01-.025.001.003c0 .001.004.009.008.02l.011.05a.5.5 0 0 1-.011.12l-.069-.134-.004-.008-.01-.022-.011-.024-.014-.029-.013-.029-.012-.026.024-.008.032-.001.019.014a.21.21 0 0 1 .028.032m-3.066 2.995l.389-.592-.389.592zm3.071-2.986l.002.004zm-2.781 1.419l-.318.603a3.86 3.86 0 0 1-.533.333c.221-.323.424-.678.604-1.055h0v-.001c.526-1.112.945-2.424 1.162-3.734-.049 1.318-.347 2.688-.915 3.853v.001zm2.294-1.168h0l.002.003zm.002.005h0zm.506.31l.054-.061.05-.05.019-.016.007-.005-.004.002-.025.015-.04-.084-.021-.046-.009-.019-.032.263zm1.54 5.145l-.01.005 2.147-1.613h0l.014-.009h0l2.264-1.621.001-.001.287-.234.022-.018-.258.267-.019.019h0c-.653.676-1.39 1.269-2.155 1.809h-.001l-.009.006h0l-.005.003-.558.344-.858.52-.857.519h0l-.005.003zm1.579-1.277l.557-.332-.557.332zm-4.229-.038c-.297.602-.647 1.16-1.074 1.606l2.177-4.481-.071.198-.134.388-.898 2.288zm1.247-4.635c.129.131.165.295.17.476l-1.58.739.012-.016.018-.026.044-.068.126-.199.333-.492c.131-.171.246-.307.394-.412a.48.48 0 0 1 .236-.094h0l.008-.001c.07-.009.182.032.233.087h0l.006.006zm-.804 1.164l-.102.286.102-.286zm4.451 5.101l-.094.484-.02.084v.002l-.024.097a1.51 1.51 0 0 0-.037.233.55.55 0 0 0 .037.256l.002.006h0a.38.38 0 0 0 .2.189l.024.008-.089-1.358zm0 0c.04-.219.11-.423.196-.659l.023-.064c.072.256.091.518.051.768l-.096.495-.024.1-.021.088c-.012.053-.028.124-.031.188-.003.039.001.069 0 .061h0c0-.001-.001-.014 0-.03 0-.002 0-.011.002-.024l.061.002-.016.066-.007.031-.011.044-.018-.033-.003-.008a.08.08 0 0 1-.007-.022l.004.016.005.014v.001l.016.043-.002.007.005.002a.27.27 0 0 0 .015.025h0c.006.009.03.046.075.076a.5.5 0 0 0 .126.046.48.48 0 0 0 .174-.041c.024-.015.043-.032.059-.05.329.017.661-.013.992-.064l1.128-.234.273-.063.001.004.03-.009.031-.009-.001-.004.175-.07.217-.086a2.62 2.62 0 0 1 .767-.157c-.216.175-.433.319-.666.411h0l-.002.001-.431.171h0l-.002.001-3.089-1.033zm.113.87c.005-.013.026-.077.091-.127l-.041.173-.061-.005a.27.27 0 0 1 .01-.04v-.001zm13.747-1.673h-.001l.004.007m-.004-.006l.004.006m.136.066h-.001l-.001-.001-.007-.005-.004-.003.09-.023-.002.007-.001.004m-.075.021h0l.01.007-.027.038a.31.31 0 0 0 .06.021h-.001m-.041-.065l.075-.021m-.075.021a.15.15 0 0 0 .022.011.45.45 0 0 0 .035.014h0m-.016.041l.023-.038m-.023.038h0 0zm.023-.038l.011-.048m-.008.049l-.009.041c.01.002.019.002.026.003l.017-.033-.034-.011zm0 0l.011-.05m0 0l.023-.007v-.004-.005l-.021.005-.001.006-.001.004zm0 0h-.003m2.907 1.143a.25.25 0 0 0 .029-.011l.02-.011m-.049.022l.054-.026m-.054.026l-.001-.072v-.026l-.001-.075.108.101-.03.029m-.076.042l.058-.028m-.003.002l.003-.002m-.003.002l.003-.002m0 0l.002-.001.001-.001m-.003.002l-.009.006c.022-.014.042-.031.06-.052l.001-.001h0a.61.61 0 0 0 .078-.117l-.012.021a.62.62 0 0 1-.065.094l-.021.022-.015.014m-.015.012l.006-.005m0 0h.001v-.001m0 0l.005-.004m-.005.004l.008-.006m1.395-3.052c-.209.058-.311.246-.345.345l.345-.345zm0 0l.072.258a.26.26 0 0 1 .125-.022l-.132.03c-.028.009-.053.025-.075.047m.01-.314l.064.262c-.044.023-.067.045-.07.048h0l-.021.022.018-.018m0 0l-.019.02c-.03.036-.05.077-.058.102l-.001.002.012-.026.005-.01m.061-.088c.006-.005.02-.018.043-.031l.059.228-.174-.082.009-.024m.002-.004h0 0zm-4.413 1.609l-.023-.014.008-.011.037-.01-.022.035zm.013-.051h0zm.073.081h.003-.003zm2.521.922l.092.053a1.36 1.36 0 0 1-.191-.116l.099.063zm.721-.384l-.026.081.026-.081zm.319-.856a6.15 6.15 0 0 0-.253.636 6 6 0 0 1 .253-.636zm.631-1.024l-.356.513c.105-.172.223-.34.355-.511zm-1.245 1.901l.032.015a.26.26 0 0 1 .113.16l-.171-.071v-.034l.026-.071zm.096.41l-.119-.098-.003-.207.171.073a.3.3 0 0 1-.001.131c-.011.045-.031.075-.036.083h0l-.012.017zm1.219-2.438l-.015.036.015-.036.013-.033-.012.033zm-2.434 1.878l-.093-.065-.156-.098c.084.046.165.101.249.163zm-.774-.299l.181.02-.102-.012-.08-.008zm7.081-1.428l.285.032-.285-.032zm-3.094-.418l-.191-.046a2.02 2.02 0 0 1 .196.042l.18.052.02.006-.089-.024-.116-.031zm.582.138l.067.008-.067-.008zm-1.308-.008l.176.079.035.135c-.012.034-.028.073-.051.116a.27.27 0 0 1-.062-.035c-.045-.034-.071-.076-.086-.11-.026-.06-.023-.112-.022-.127a.28.28 0 0 1 .007-.045z"/></g></g><mask id="C" class="E"><path d="M72.797 32.373c-3.151 5.851-8.881 11.187-14.365 14.742-2.153 1.395-6.085 3.361-8.673 3.546"/></mask><g class="E"><path d="M58.431 47.115l.298.46h0l-.298-.46zm13.883-15.002c-3.094 5.744-8.746 11.019-14.181 14.541l.596.92c5.534-3.587 11.342-8.985 14.55-14.942l-.966-.52zM58.133 46.655a30.07 30.07 0 0 1-4.095 2.185c-1.559.682-3.12 1.189-4.32 1.274l.078 1.094c1.389-.099 3.089-.667 4.681-1.363 1.603-.701 3.151-1.555 4.252-2.269l-.596-.92z" mask="url(#C)"/><g class="D"><path d="M55.437 48.488h.002a29.3 29.3 0 0 0 2.843-1.603c3.865-2.504 7.862-5.909 10.967-9.74l1.294-1.544 1.18-1.405c-.555 1.152-1.227 2.273-2.049 3.294-3.153 3.89-7.181 7.318-11.094 9.855-.786.509-1.797 1.089-2.898 1.634l-.002.001c-1.213.612-2.593 1.05-3.852 1.267.239-.103.48-.213.723-.328.541-.255 1.101-.538 1.659-.819l1.226-.611z" stroke="#fff"/></g></g><g class="B"><g class="C D"><path d="M98.436 95.895c1.358.718 2.482 2.019 2.976 3.68a7.69 7.69 0 0 1 .314 2.188h0c0 3.82-2.745 6.949-6.226 6.964-3.48-.015-6.226-3.144-6.226-6.964h0a7.66 7.66 0 0 1 .314-2.188l8.848-3.68zm0 0c1.205.913 2.053 2.277 2.499 3.799a7.32 7.32 0 0 1 .296 2.068h0c-.001 3.618-2.606 6.522-5.731 6.507-3.125.015-5.73-2.889-5.73-6.506l8.667-5.869zm-5.872 0c-1.358.718-2.483 2.019-2.976 3.68l2.976-3.68zm0 0c-1.206.913-2.053 2.277-2.499 3.799a7.31 7.31 0 0 0-.296 2.069l2.795-5.868zM27.292 51.403h0l.002-.006a1.86 1.86 0 0 1 .209-.487l.048-.083c.053.231.062.448.008.639h0l-.002.006c-.314 1.235-.97 2.318-1.862 3.23h0l-.004.004c-.135.144-.322.248-.543.328l.042-.081a1.77 1.77 0 0 1 .305-.44h0l.004-.004c.864-.884 1.49-1.92 1.792-3.106zm-.628 3.866c-.182.117-.424.142-.682.139l3.375-2.051c-.126.222-.259.418-.444.521l-1.919 1.18-.33.211zm0 0h0 0zm2.308-1.94l.082.001-.047.072a.72.72 0 0 1-.229.237h0-.001l-1.933 1.188-.328.21h0l-.001.001c-.073.047-.176.077-.322.089l-.083.005.041-.074c.074-.126.144-.206.216-.252h0l.001-.001.35-.224 1.924-1.182h0l.001-.001c.076-.044.182-.068.328-.071z"/></g><path d="M64.627 245.17a.5.5 0 0 0-.392.023l-2.282 1.118-1.567.656-.76.427c-.041.01-.068.051-.058.092s.051.068.092.058l.899-.012c.575-.047 1.149-.262 1.694-.438.834-.269 1.633-.596 2.431-.956a.53.53 0 0 0 .242-.703.52.52 0 0 0-.3-.265z"/><path d="M64.604 244.132c-.148-.054-.319-.049-.472.023l-1.567.841-1.614.726-1.625.807c-.084.028-.131.112-.104.196s.124.131.208.103l1.797-.322c1.173-.301 2.31-.76 3.423-1.233.308-.144.443-.51.299-.818a.62.62 0 0 0-.346-.323z"/><path d="M64.695 243.012c-.13-.028-.272-.008-.392.069l-3.042 1.59-1.383.577c-.328.16-.569.353-.864.564-.015.004-.016.02-.012.035s.008.015.023.011c.391.036.655.087 1.048.035.499-.066 1.015-.244 1.498-.38 1.233-.348 2.285-.731 3.284-1.556a.52.52 0 0 0 .162-.715c-.077-.12-.194-.202-.323-.23z"/></g></g><defs><linearGradient id="D" x1="66.79" y1="44.463" x2="73.021" y2="69.209" gradientUnits="userSpaceOnUse"><stop stop-color="#dda88e"/><stop offset="1" stop-color="#edd1bf"/></linearGradient><linearGradient id="E" x1="45.464" y1="58.307" x2="45.464" y2="73.784" gradientUnits="userSpaceOnUse"><stop stop-color="#dda88e"/><stop offset="1" stop-color="#edd1bf"/></linearGradient><radialGradient id="F" cx="0" cy="0" r="1" gradientUnits="userSpaceOnUse" gradientTransform="translate(37.7949 173.477) scale(11.3693 11.3693)"><stop stop-color="#dda88e"/><stop offset="1" stop-color="#edd1bf"/></radialGradient><radialGradient id="G" cx="0" cy="0" r="1" gradientUnits="userSpaceOnUse" gradientTransform="translate(114.071 199.52) scale(15.0859 15.0859)"><stop stop-color="#dda88e"/><stop offset="1" stop-color="#edd1bf"/></radialGradient><clipPath id="H"><path d="M0 0h178v534H0z" class="E"/></clipPath></defs></svg>