<svg xmlns="http://www.w3.org/2000/svg" xmlns:xlink="http://www.w3.org/1999/xlink" width="188" height="551" fill="none" xmlns:v="https://vecta.io/nano"><g clip-path="url(#F)"><g fill="#070d1c"><path d="M50.29 491.82l1.299 16.436-13.661 22.194-17.095 15.097s-14.992-2.616-18.279-6.143c-1.159-1.242-1.297-5-1.114-6.684.273-2.509 3.763-9.368 3.763-9.368l1.74-5.632 12.57-24.042 30.777-1.858zm27.617-34.838l-3.321 21.014s19.626 13.827 20.508 13.827 14.904 14.208 14.904 14.208 16.534 4.743 16.368 3.754 9.519-6.524 9.519-6.524l-3.284-9.678-13.158-15.887-5.422-12.003-36.114-8.711z"/></g><g fill="#c1bac6"><path d="M33.078 534.83s-.906-6.696-2.481-8.117c-.836-.754-3.669-.61-4.122-1.64-1.491-3.394 4.231-12.985 7.355-20.614.906-2.213 2.853-9.694 2.981-8.996s6.156-1.19 6.156-1.19.337 5.053.02 6.697c-.717 3.717-4.236 10.474-5.464 14.12-.582 1.729-2.802 6.589-2.802 6.589s1.668 2.169 2.09 2.974c.427.813 1.272 3.448 1.272 3.448l-5.005 6.729zM6.547 520.115s3.296-.123 4.18-.68c2.395-1.51 4.879-10.217 4.879-10.217l6.232-14.271-2.26-1.267-4.489 10.207-8.049 13.256-.493 2.972zm102.973-17.602s-.456-4.033.643-4.94c.765-.631 2.727.539 3.919-.76 2.309-2.515.932-3.689.932-3.689l-17.391-21.336c.381.524-4.791-7.1-4.791-7.1l-6.918-2.336s-1.368 3.669-.791 4.717c2.161 3.916 19.568 24.161 19.568 24.161s-1.356 1.298-1.572 1.869c-.36.958-.085 4.091-.085 4.091l6.486 5.323z"/></g><path d="M24.38 256.87s-1.166 4.297-2.318 10.651c-2.67 14.714-6.726 40.986-6.468 54.21.274 14.087-1.654 31.88-2.313 52.371-.98 30.406-.792 64.817.365 86.201.37 6.837-2.315 28.661-2.315 28.661s2.005 1.709 2.803 2.049c3.367 1.437 10.546 6.064 14.56 6.524 4.285.491 16.522-4.057 16.522-4.057s9.731-4.203 11.857-4.653c.471-.1 5.439-3.162 4.974-7.321-1.804-16.135-2.418-41.3-1.474-55.037 1-14.562 7.49-57.899 7.49-57.899l14.917-81.067s4.92-.655 5.654.562c5.405 8.956.904 12.076 4.798 25.384 2.093 7.152 5.588 38.776 5.588 38.776s-6.044 12.001-7.724 18.872c-5.216 21.327-17.412 74.395-16.118 83.009.288 1.924 9.076 7.381 15.012 9.673 5.19 2.003 11.371 2.95 16.227 3.276 5.428.365 8.488-1.658 8.602-2.231 1.224-6.195 4.187-30.389 7.832-41.375 4.167-12.559 20.971-55.104 20.971-55.104l2.178-44.986s4.863-31.04 4.733-45.757c-.041-4.657-1.077-17.323-2.534-25.892-1.093-6.423-2.776-10.532-2.776-10.532s-.351 14.675-6.83 19.48c-10.182 7.552-32.152-1.101-46.186 1.045-4.917.752-16.05 6.054-24.918 3.093-4.082-1.364-13.839-6.598-15.327-6.813-6.269-.902-12.616-4.637-12.616-4.637s-6.183-1.732-8.409-1.745c-3.179-.018-6.754 5.269-6.754 5.269z" fill="#598cac"/><g fill="#fff6f6"><path d="M145.422 241.176l-1.054 8.164s-3.077 8.692-5.49 10.757c-2.026 1.733-10.419 3.88-10.419 3.88l-16.229-1.11s-13.839-1.254-18.19 0c-5.6 1.613-18.234 3.495-24.263 2.528-7.264-1.165-15.695-7.71-20.474-8.003-3.765-.23-9.434-4.048-9.434-4.048l6.959.127 20.72 1.28 25.098-1.407 16.145-1.636 21.081-5.313 10.086-2.387 5.464-2.832zM31.479 251.613s-1.72-.509-4.277 2.063c-.668.671-2.901 3.492-2.901 3.492l-1.402 6.058s-2.298 1.515-3.184 1.824c-.64.223-2.378.488-2.505.231l1.611-1.05 7.764-12.576 1.794-1.725 3.102 1.683z"/></g><path d="M109.963 252.777c6.241-1.109 24.245-7.429 24.245-7.429s9.949-2.003 11.289-4.756c.277-.569-.665-2.441-.665-2.441l-2.356-1.635 1.094-3.558 4.704-.834s1.457 6.114 2.492 6.114c4.119 0 18.879-6.513 19.964-7.067 2.992-1.527-5.365-11.9-5.365-11.9l4.429-7.508s-.547-4.558-1.497-5.678c-.962-1.135-3.866-1.198-3.866-1.198s.592-3.564.392-4.736c-1.066-6.258-10.365-23.182-10.365-23.182s-8.768-16.909-10.802-22.904c-3.293-9.708-8.684-40.075-8.684-40.075s-4.536-14.683-7.897-18.389c-3.299-3.637-6.105-7.473-17.204-9.468-1.471-.264-1.296-3.976-2.645-5.358-1.171-1.198-4.608-3.12-4.608-3.12s-6.496 8.097-8.922 10.557c-1.823 1.848-7.84 6.809-7.84 6.809L71.736 83.815s-5.564-6.082-6.408-8.634c-.219-.664 0-2.797 0-2.797s-8.689-1.807-12.902 0c-3.311 1.42-12.932 8.927-12.932 8.927s-11.715 3.521-16.587 9.961c-5.013 6.627-6.997 18.364-6.997 18.364l3.091 45.666L20.9 172.59l5.272 8.416 3.123 13.177-1.315 39.148-.837 9.29 2.208 3.354-.937 3.421s8.539 4.468 16.255 4.039c5.69-.316 7.136.656 13.845 1.318 5.393.531 38.773.276 51.449-1.976z" fill="#c1bac6"/><path d="M76.894 190.689s-4.014 5.901-4.61 8.168c-.683 2.6 0 10.752 0 10.752l11.14 6.739 12.605 9.68 23.769 3.133 13.647-13.197-3.683-3.26-2.839.098-1.404-4.076h-4.032s-3.28 9.597-5.238 8.235c-7.463-5.193-13.641-15.396-19.584-15.854-1.923-.148-5.47-1.904-8.322-2.597-2.92-.711-11.448-7.821-11.448-7.821z" fill="#edd1bf"/><path d="M83.047 195.131s-.452-3.319-1.861-4.526c-.494-.423-1.216-.717-2.474-.716-1.286 0-2.128 1.259-2.128 1.259l6.463 3.983z" fill="#070d1c"/><g fill="#edd1bf"><path d="M150.909 239.267c-.029.01-.045.041-.035.07l1.924 5.959 4.042 7.234 1.508 2.898c.004.013 1.519.05 1.515.062l-1.68 4.411c-.548 1.889.119 1.49-1.384 2.8-.422.367-1.496-.65-2.743-.1s-.254 1.827-.041 2.083l3.16 1.546c.342.354 3.393-1.042 3.898-1.389 1.018-.698 3.006-3.744 3.007-3.754l-.526 3.888-2.248 3.931c-.687 1.411-2.235.72-2.231 1.103.025 2.488 3.637 3.676 4.192 2.909.006-.007.012-.013.021-.017l1.885-1.712c.029-.015.089.007.103.037l-.51 1.394c-.393.727-1.186 1.602-.463 2.002.856.474 4.007-.035 4.008-.033.147.717 3.823-3.199 4.083-3.94l1.289-3.994.891-7.258c.009-.059.778 1.118.8 1.174l.788 3.782-.546 4.083c.001.002.359 3.914.36 3.916.378.733 3.755-1.349 3.664-2.168 0 0 2.925-6.68.985-14.107-.366-1.399-.068-7.168-.068-7.168-.274-.372-.361-.288 0 0 .268.215-1.948-2.341-1.947-2.341 1.622.62 1.492 1.816 2.576 2.285.003.001 2.185.362 2.187.363l2.785.805c.012.004.654-2.28.667-2.286l-2.76-3.488c.034-.016-1.823-1.503-2.439-2.187-4.541-5.04-3.415-5.408-4.541-6.163-5.169-3.467-6.354-4.385-6.356-4.728-.003-.593-18.696 7.687-19.82 8.098zM67.271 33.616h-1.123l-2.712 7.277 1.918 3.252-.976 4.525 2.853 1.814s.436 5.105.04 10.834c-.395 5.699-1.611 11.719-1.849 11.996-.818.953.157 5.203 7.402 10.717 6.453 4.91 9.542 11.141 13.841 11.369 3.775.201 10.892-12.682 15.688-16.91 3.653-3.221 9.415-9.687 11.952-13.392 5.462-7.978 7.2-16.241 7.2-16.241L80.62 31.647l-13.349 1.969z"/></g><g opacity=".45"><path d="M89.516 53.82c-.524-2.973-9.86-8.827-12.845-8.927-2.37-.078-7.798 5.913-7.798 5.913s1.602 10.324 3.428 12.525c1.863 2.246 8.776 2.598 11.453 1.515 2.929-1.185 6.304-7.95 5.761-11.026z" fill="url(#A)"/><path d="M103.137 57.559l-.719 10.696 5.893 4.114 8.784-11.22s-3.333-2.085-4.573-2.478c-2.251-.715-9.385-1.113-9.385-1.113z" fill="url(#B)"/><path d="M70.424 33.774l-4.375-.008-2.263 7.125 2.748 8.422c.595.646 5.993-4.576 7.212-4.576s-3.321-10.964-3.321-10.964z" fill="url(#C)"/><path d="M107.042 207.997s7.19 9.588 9.579 9.244c1.498-.217 5.406-8.788 7.97-8.516 1.434.153.929 5.414.929 5.414s3.732-2.3 5.684-.054c.752.866 0 4.587 0 4.587l-10.433 10.367-24.741-3.011s-15.409-12.879-15.409-11.83 2.539-5.545 2.804-7.6c1.293-10.002 23.617 1.399 23.617 1.399z" fill="url(#D)"/><path d="M167.686 241.175c-5.129-2.939-9.476-4.307-11.554-2.169-1.432 1.473-1.579 8.182-1.579 8.182l5.313 9.388s5.099 3.936 6.021 5.037 4.237 2.031 5.492 1.254c1.938-1.202 6.685-7.848 7.093-10.093.485-2.664-5.096-9.559-5.096-9.559s-.965.668-5.69-2.04z" fill="url(#E)"/></g><g fill="#fff"><path d="M91.499 47.118s.853 1.32.441 1.756c-1.22 1.294-3.639 1.139-6.212.179-3.457-1.29-5.22-4.909-5.22-4.909l3.771-.562 5.066 1.84 2.154 1.695zm13.331 5.187l.608 3.837s4.018 1.396 5.387 1.22c2.249-.29 4.099-1.914 4.099-1.914l-3.255-2.695-3.93-.797-2.909.35zM83.94 69.182c1.5-1.384 7.531 2.887 7.522 3.137s6.581-.189 7.039 1.559c.157.601-1.907 1.593-1.907 1.593l-7.493-1.389-4.511-2.691s-1.073-1.817-.651-2.208zM53.121 512.42c.095 4.127-9.458 8.729-9.458 8.729s-1.105 7.367-2.081 9.628c-2.939 6.802-9.907 12.398-14.359 15.106-3.303 2.009-9.635 4.953-14.722 3.706C4.498 547.628.854 538.963.854 538.963l.587-6.24s1.537 5.84 6.596 8.706c1.745.989 5.851 2.511 7.863 2.447 2.338-.073 9.099-2.5 9.099-2.5s8.342-6.994 10.567-9.889c1.667-2.169 5.185-8.905 5.185-8.905s2.217-7.173 3.741-9.104c1.53-1.939 8.015-5.775 8.015-5.775s.586 3.528.614 4.717zm22.091-35.752s7.716 6.268 10.514 8.034c2.434 1.534 8.169 3.817 10.581 5.588 2.036 1.495 6.726 6.993 6.726 6.993s4.944 4.21 6.841 5.227c2.486 1.332 7.847 3.518 10.665 3.676 2.12.118 6.812-.331 8.962-.925 1.669-.463 6.209-2.593 6.209-2.593s1.17 3.017-.735 5.543c-1.483 1.966-8.993 4.022-8.993 4.022s-12.85.773-18.113-3.349c-2.503-1.96-9.405-8.56-9.405-8.56l-3.612-4.432-13.416-8.061s-5.697-3.327-6.804-5.402c-1.402-2.628.58-5.761.58-5.761z"/></g><g stroke="#fff" stroke-width="3.462" stroke-miterlimit="10" stroke-linecap="round" stroke-linejoin="round"><path d="M28.67 523.657c-1.297-1.193-2.857-1.828-4.396-2.662-4.449-2.411-9.186-3.729-14.201-4.365 1.833-1.802 4.83-2.014 7.398-2.349 5.175-.675 10.209-1.408 15.345.031-3.976-4.505-10.483-7.5-16.643-8.416 1.909-.592 3.505-.521 5.355-.757 4.85-.621 10.546-1.224 15.338.16-1.01-1.572-2.839-2.254-4.569-3.311-4.035-2.464-7.816-4.342-12.267-5.998m20.513 1.198c-1.007.256-11.073 2.008-12.11 2.095m83.462-6.357c5.042-3.157 10.079-4.994 16.145-4.916-3.123-2.317-6.457-2.515-9.952-2.806-1.328-.11-2.512-.476-3.861-.247-2.477.421-4.755 1.63-7.207 2.113 1.704-3.296 5.057-5.112 8.036-7.074 1.26-.83 2.253-1.87 3.594-2.609-6.202-1.069-13.808-2.789-19.182.577 4.327-3.571 8.883-7.484 14.447-9.9-2.664.643-5.598 1.061-8.192.918-3.075-.17-5.793-1.242-8.828-1.018-1.663.122-3.291-.315-4.977-.014"/></g><g fill="#eb6789"><path d="M79.949 33.476s-1.883 2.505-2.402 5.387c-.144.8.575 3.199.575 3.199l-3.76-3.626-5.334.706 3.469-3.12-3.869-.246-1.398-2.156 2.539-1.502s-2.223.539-2.92.309c-2.345-.776-3.683-4.403-2.808-3.654 2.393 2.047 5.194.785 5.194.785l-6.922-5.565 5.205-.434c2.264-.304 3.662-2.914 3.662-2.914l8.769 12.831zm15.92 10.108s.729 2.105 0 5.728c-.312 1.551-3.368 5.356-3.368 5.356s4.239-.426 4.572-1.783c.272-1.112 2.262 6.331 2.262 6.331l2.589-6.157 3.421 3.34-.758-4.442c-.534-2.834.854-4.559.854-4.559l-9.571-3.814zm25.632 5.089l-2.108 7.243s.536 2.96.681 2.748c.88-1.287 4.134-4.443 4.134-4.443s1.773 3.145 2.642 3.956c.125.116-.509-2.972.15-3.508.8-.65 4.036.842 4.036.842s3.637 1.341 3.644 1.605-.923-2.49-.923-2.49l-2.936-2.782 2.662-2.677s-3.146.606-4.156.41c-2.064-.402-2.407-1.676-2.407-1.676l-5.419.771z"/></g><g fill="#070d1c"><path d="M73.743 100.802c-5.629-2.858-4.858-3.406-11.186-9.066-2.905-2.592-6.537-6.941-9.966-9.179-3.354-2.186-7.099-2.636-10.854-2.008-3.761.625-7.556 2.293-11.201 4.327-6.807 3.794-10.161 10.05-12.529 17.001a66.14 66.14 0 0 0-1.353 4.418c-1.339 5.032-1.762 9.612-1.4 15.403.396 6.298 2.116 12.284 2.66 18.276l2.652 31.672c.321 2.944 3.903 6.074 5.056 8.794-1.035-2.75-4.485-6.177-4.597-8.827l-1.395-31.759c-.379-6.24-1.94-12.283-2.204-18.273-.253-5.638.18-9.871 1.459-14.693a69.69 69.69 0 0 1 1.298-4.275c2.288-6.786 5.224-12.401 11.334-16.032 3.486-2.066 7.059-3.751 10.511-4.441 3.457-.687 6.768-.414 9.919 1.453 3.266 1.934 7.124 6.131 10.185 8.641 6.508 5.317 5.864 5.982 11.612 8.568zm-49.292 70.309c.791 5.594 1.81 11.154 2.675 16.692.327 2.056.384 5.217 1.446 7.771.24.569.535 1.113.912 1.603.816 1.064 1.815 1.763 2.792 2.303s1.954.942 2.839 1.408c4.919 2.595 9.908 4.646 14.809 7.204-4.495-3.224-9.194-5.989-13.82-8.914-.96-.601-1.909-1.068-2.729-1.579s-1.509-1.054-2.063-1.804c-.226-.306-.431-.682-.613-1.116-.838-1.962-1.088-5.01-1.599-7.26-1.293-5.542-3.079-10.884-4.649-16.308zm56.098 100.565c4.624 13.226 1.168 21.364-1.883 37.018-.702 3.586-3.592 14.251-4.696 19.071-.817 3.552-2.097 9.873-3.191 15.719l-1.431 8.001c-.383 2.282-.644 4.009-.722 4.886l-.123 1.234c-.513 4.591-1.831 12.639-2.369 15.533-2.304 12.318-4.172 24.597-5.248 36.326-1.048 11.422-2.623 24.11-4.391 35.435 2.214-11.247 4.287-23.877 5.713-35.292 1.455-11.635 3.64-23.801 6.093-36.05.595-2.962 1.978-10.977 2.497-15.698l.129-1.29c.059-.712.316-2.457.683-4.711l1.355-7.978 2.903-15.701 4.175-19.241c2.517-15.594 5.679-24.246.508-37.262zm-69.283 217.31c2.686-19.182 2.949-29.056 3.306-48.174.314-17.294-.537-30.22-.449-46.188l.298-20.926c.522-23.338 1.6-47.665 3.017-70.102.935-14.808 3.185-29.041 6.619-45.235-3.916 16.081-6.597 30.274-7.914 45.137-1.987 22.413-3.515 46.759-4.029 70.149l-.189 20.976c.082 16.072 1.181 28.948 1.287 46.181.126 19.121.169 28.918-1.945 48.182zm136.087-174.478c-1.409 7.781-2.156 9.054-2.6 17.471-.023.443-.272 3.224-.515 6.529s-.479 7.149-.483 9.787c-.007 9.093.083 19.822-2.924 26.893-1.918 4.554-4.439 9.078-6.781 13.783-1.753 3.522-3.404 7.146-4.608 10.957-4.759 15.077-9.805 29.783-12.18 45.514-.925 6.141-.685 12.276-1.842 18.335 1.427-6.002 1.472-12.201 2.641-18.197 3.019-15.518 8.536-29.889 13.506-44.966 1.196-3.628 2.818-7.136 4.549-10.615 2.311-4.647 4.819-9.24 6.728-13.982 3.133-7.841 2.638-18.653 2.336-27.745-.088-2.563-.001-6.405.107-9.709l.244-6.56c.081-8.372.758-9.639 1.822-17.495zm-52.105-88.56c3.492.47 6.837 1.583 10.333 2.259 2.936.566 5.855.742 8.76 1.035l4.572.525c-.007-.001-.015-.001-.023-.003.098.011.378.124.763.239.37.105.991.215 1.604-.138.467-.269.765-.617 1.002-.894s.417-.502.556-.609c1.76-1.453 3.06-2.846 4.485-4.606 1.026-1.276 2.408-2.405 3.562-4.045.132-.189.308-.412.505-.653.628-.798 1.503-1.721 1.873-3.012.121-.465.025-.85-.082-1.132a3.19 3.19 0 0 0-.394-.706c-.276-.384-.579-.698-.672-.817-.641-.795-1.369-1.538-2.376-1.933-1.006-.412-2.262-.269-3.343.445-.49.311-.711.703-.851.902-.146.218-.189.263-.257.311l1.51.922c-.002-.811.086-2.449-.277-3.888-.189-.719-.488-1.444-1.136-1.965-.651-.534-1.61-.641-2.532-.322-.691.226-1.234.682-1.712 1.214s-.89 1.165-1.262 1.815c-.739 1.296-1.314 2.686-1.696 3.476-.141.289-.403.869-.705 1.378-.149.252-.309.485-.448.641-.069.078-.132.135-.177.168-.023.016-.04.026-.05.032-.237.061-.784-.121-1.294-.418a11.96 11.96 0 0 1-1.342-.91c-1.865-1.437-3.73-3.374-5.872-4.422 2.042 1.23 3.682 3.268 5.47 4.9.307.279.799.712 1.342 1.08.551.361 1.126.689 1.763.671.364-.034.605-.228.834-.438.226-.215.432-.478.626-.751.382-.544.707-1.139.858-1.397.469-.81 1.13-2.119 1.897-3.268.381-.572.789-1.1 1.186-1.489s.78-.628 1.056-.689c.628-.142.787-.02.937.101.154.134.34.491.439 1.016.216 1.049.097 2.549.053 3.414-.018.344.171.698.47.886.296.193.695.217 1.04.037.518-.272.812-.681.981-.912.174-.249.245-.302.252-.296.731-.397 1.04-.345 1.434-.203.393.157.899.612 1.406 1.284.206.261.439.515.59.736.073.105.117.195.12.209-.006-.017-.01-.033-.013-.056a.62.62 0 0 1 .018-.225c-.116.505-.778 1.344-1.455 2.155-.209.257-.417.517-.608.794-.901 1.319-2.221 2.447-3.415 3.978-1.338 1.736-2.461 3.027-4.051 4.468-.359.324-.58.652-.771.897s-.334.405-.446.478c.006-.001.019-.004.027-.004-.016.009-.086.007-.194-.017-.222-.041-.553-.183-1.029-.236l-.024-.002-4.608-.245c-2.977-.103-5.845-.06-8.743-.382-3.463-.385-6.947-1.214-10.466-1.383zm30.729-110.69c-2.01 10.565.215 22.281.703 32.738l.257 5.385c.65 12.833 1.544 24.854 4.719 37.67-1.999-13.052-1.787-24.898-2.414-37.784l-.321-5.402c-.753-10.771-3.97-21.927-2.944-32.607zm5.695 77.445c.468 3.543.531 7.149.894 10.769.597 5.912 1.206 11.906 3.597 17.448 1.095 2.536 2.417 4.845 3.861 7.158.607.969 1.386 1.952 1.981 2.92s.986 1.903.924 2.711c-.028.389-.138.764-.389 1.171-1.481 2.388-4.399 4.341-7.026 5.396 2.744-.624 6.108-2.104 7.96-4.782.373-.541.568-1.128.606-1.707.077-1.223-.453-2.346-1.092-3.394-.646-1.046-1.431-2.036-1.985-2.926-1.429-2.29-2.719-4.545-3.781-7.004-2.301-5.323-2.914-11.194-3.508-17.107-.364-3.614-1.017-7.228-2.042-10.653z"/><path d="M142.412 236.408c.702.604 1.481 1.023 2.003 1.56.521.547.806 1.139.735 2.311l.086-.262c-1.329 1.58-1.976 1.977-2.879 2.412l-.241.112c-4.555 2.063-9.366 2.497-14.133 3.711l-12.484 3.357c-3.01.722-5.972 1.576-9.061 2.102 3.129.052 6.282-.249 9.331-.98 4.219-1.012 8.365-2.303 12.5-3.36 4.641-1.193 9.538-1.622 14.322-3.779.088-.039.174-.08.261-.121 1.016-.474 1.947-1.147 3.094-2.93.067-.102.09-.19.086-.262-.071-1.368-.625-2.177-1.317-2.663-.692-.495-1.502-.742-2.303-1.208z"/><path d="M145.429 241.572c.104 2.644-.827 5.136-1.594 7.621l-.518 1.684c-.598 1.951-1.324 3.858-2.384 5.535-2.227 3.513-5.219 5.336-8.669 6.244s-7.348.853-11.238.534c-3.292-.266-6.631-.418-9.633-.353 2.962.463 6.195 1.226 9.539 1.503 3.94.32 7.959.39 11.624-.567s6.975-2.972 9.352-6.745c1.143-1.81 1.899-3.814 2.513-5.812.176-.576.331-1.154.473-1.728.625-2.523 1.119-5.33.535-7.916zm-115.653 3.354c-.599 1.038-.958 2.159-1.391 3.191-.044.098-.184.313-.301.581-.107.259-.241.651-.018 1.098a1.61 1.61 0 0 0 .259.36c.574.58 1.445.903 2.321 1.202l2.149.671c3.617 1.398 7.343 1.626 11.014 1.893 1.727.126 3.456-.033 5.217-.06-1.675-.545-3.407-.967-5.134-1.091-3.68-.264-7.28-.501-10.68-1.818-.534-.204-1.378-.416-2.203-.69-.817-.261-1.605-.623-1.848-.902-.043-.044-.071-.081-.087-.107.004.01.006.021.004.025-.009-.046.001-.115.026-.202.049-.18.155-.406.222-.671.253-1.198.223-2.308.452-3.48z"/><path d="M27.764 234.369l-.965 4.888c-.251 1.819-.302 3.663.426 5.058a5.43 5.43 0 0 0 .488.751c2.144 2.723 6.602 4.073 9.223 5.223 3.982 1.719 8.169 3.425 12.508 4.284 2.876.569 5.782.754 8.68.757 3.605.003 7.168-.564 10.677-1.03-3.545-.104-7.142-.121-10.676-.124-2.85-.003-5.679-.185-8.457-.735-4.192-.829-8.309-2.498-12.276-4.211-2.703-1.149-7.038-2.581-8.767-4.87-.15-.193-.283-.391-.398-.594-.561-.96-.715-2.665-.686-4.45.023-1.785.205-3.65.223-4.947zm84.466 12.067c-1.383-.005-2.782.043-4.1.391-3.953 1.049-7.837 2.286-11.789 3.011-1.316.24-2.595.71-3.935 1.105 1.382.186 2.793.279 4.144.03 4.048-.744 7.959-1.993 11.875-3.03 1.305-.347 2.538-.949 3.805-1.507zm-72.363 6.908c1.261 1.569 3.982 3.211 6.254 3.857l.89.24c1.482.344 3.003.279 4.153.743 2.298.892 4.301 2.495 6.732 3.59l8.021 3.166c2.31.721 4.779.962 7.26.825-2.45-.463-4.675-1.238-6.918-1.927-2.688-.834-5.292-1.954-7.892-3.118-2.258-1.003-4.274-2.622-6.783-3.611-1.478-.565-3.049-.477-4.304-.79l-.83-.224c-2.123-.662-4.989-1.545-6.583-2.751zm-11.52-55.018c-.276 2.308-.458 4.823-.379 7.257l.049 4.402-.321 12.238-.129 4.921c-.063 2.403.162 4.813.387 7.224l.766-7.194.129-4.921.321-12.241-.05-4.465c-.073-2.453-.499-4.915-.775-7.221zm115.317 34.63c3.314-.147 6.262-.807 8.867-2.212 2.132-1.144 4.09-2.614 6.01-4.426 3.413-3.219 6.241-5.788 9.33-9.456 1.383-1.652 2.705-3.828 2.677-6.152a5.01 5.01 0 0 0-.144-1.109c-.092-.37-.405-1.251-.807-2.121a11.46 11.46 0 0 0-.63-1.199c-.222-.347-.399-.608-.673-.772-1.456-.727-2.192-.776-3.647-.529 1.513.047 2.042.199 3.308 1.098a2.54 2.54 0 0 1 .312.573c.143.328.295.753.438 1.184.282.856.546 1.77.595 2.018.059.291.089.583.094.878.045 1.84-1.103 3.852-2.405 5.388-3.035 3.603-5.814 6.128-9.24 9.36-1.862 1.757-3.736 3.159-5.763 4.249-2.469 1.321-5.082 2.438-8.322 3.228z"/><path d="M148.369 232.505c.188 1.183.344 2.353.73 3.526.268.808.649 1.489 1.175 1.987.52.497 1.209.797 1.965.784.312-.003.622-.051.926-.125 1.15-.287 2.283-.906 3.155-1.191 3.254-1.083 6.249-2.385 10.558-3.99 1.314-.49 2.489-.882 3.389-1.32.45-.222.836-.454 1.143-.755.305-.295.537-.71.532-1.176-.009-1.394-.672-2.884-1.538-4.411-1.505-2.697-4.026-5.188-5.16-6.975.757 1.997 2.682 5.028 4.158 7.548.835 1.449 1.396 2.835 1.386 3.838-.004.103-.028.189-.189.355-.158.159-.449.349-.84.54-.783.385-1.952.779-3.284 1.275-4.339 1.617-7.331 2.916-10.519 3.976-1.014.343-2.123.939-3.065 1.165a3.7 3.7 0 0 1-.684.111c-.47.022-.866-.1-1.283-.407s-.82-.813-1.185-1.5c-.545-1.023-.943-2.134-1.37-3.255zm11.502-21.774c3.127-1.957 5.681-6.207 5.437-10.115-.185-2.795-1.634-6.004-2.558-8.513-.964-2.609-2.285-5.112-3.621-7.549l-1.651-3.035c-2.933-5.529-5.854-11.177-8.522-16.828-1.454-3.077-3.109-5.907-4.118-9.07-1.94-6.062-6.101-21.707-6.778-27.942-.19-1.715-1.612-13.873-5.441-23.699-1.507-3.882-3.439-7.394-5.861-9.735-4.156-4.005-7.79-5.888-10.649-6.845s-4.957-.989-6.144-1.271c1.172.352 3.264.518 6.017 1.618s6.169 3.129 10.09 7.185c2.185 2.257 3.985 5.672 5.472 9.466 3.759 9.628 5.188 21.741 5.368 23.406.71 6.44 4.865 22.022 6.826 28.168 1.064 3.321 2.753 6.195 4.175 9.212 2.68 5.676 5.608 11.34 8.546 16.875l1.658 3.05c1.334 2.432 2.669 4.866 3.677 7.363 1.022 2.53 2.553 5.61 2.85 8.203.424 3.572-1.767 7.925-4.773 10.056zm-3.738-4.409c-.911 1.749-1.937 2.247-3.365 3.53l-.666.608c-1.882 1.749-4.225 3.311-6.669 3.079-2.458-.207-5.007-1.88-6.933-3.526l-1.211-1.133-3.84-4.241c.747 1.718 1.516 3.463 3.012 5.043a18.27 18.27 0 0 0 1.291 1.21c2.014 1.704 4.686 3.529 7.579 3.797 3.023.255 5.589-1.574 7.554-3.381l.664-.665c1.226-1.338 2.23-2.392 2.584-4.321zM81.692 100.803l-1.173 7.201c-.549 6.37-.939 12.76.726 19.144.272 1.047.637 1.869.972 2.614l.416.901c.865 1.859 1.894 3.649 2.923 5.438-.578-1.981-1.155-3.963-1.893-5.871-.122-.323-.256-.633-.394-.941-.333-.741-.661-1.486-.908-2.432-1.607-6.153-1.243-12.4-.693-18.754.211-2.405.156-4.858.024-7.3zm8.978-.537c1.264 1.689 1.469 3.267 2.022 5.16l.211.713c1.438 4.834 1.492 9.598 1.43 14.672l-.018 1.497c-.038 1.904.144 3.744-.339 5.625 1.026-1.648 1.462-3.672 1.493-5.604l.018-1.504c.06-5.086.017-9.985-1.478-15.014l-.209-.711c-.561-1.884-1.418-3.617-3.13-4.834z"/><path d="M88.516 103.727c2.087.886 5.588-.219 7.513-1.877l.562-.514c2.428-2.452 4.139-5.343 6.233-7.87 2.052-2.483 4.289-4.702 6.82-6.687.135-.106.214-.263.221-.433.034-.949-.108-1.897-.388-2.796-.854-2.736-3.287-4.813-5.626-4.985 2.235.728 3.789 2.976 4.524 5.329.245.785.366 1.604.337 2.41l.22-.433c-2.601 2.039-4.898 4.319-6.998 6.86-2.165 2.624-3.863 5.48-6.163 7.793a6.91 6.91 0 0 1-.484.442c-1.739 1.413-4.581 3.123-6.772 2.762zm-41.076 2.166c3.096 3.051 5.204 6.761 6.91 10.689 2.089 4.811 3.17 10.176 3.539 15.248.347 4.75-.069 9.595-.118 14.443-.029 3.043.388 5.931.827 8.745.673 4.274 1.671 8.284 1.329 12.682.93-4.314.468-8.616-.189-12.86-.438-2.805-.842-5.626-.814-8.555.045-4.79.468-9.666.114-14.539-.377-5.175-1.477-10.658-3.632-15.624-1.763-4.064-4.499-7.632-7.968-10.229zm-.59 56.91l5.32 2.159c4.562 1.793 8.619 4.596 12.195 8.175l1.532 1.517c1.34 1.333 2.742 2.431 3.987 4.019-.713-1.883-1.82-3.484-3.172-4.836l-1.532-1.516c-3.67-3.674-7.86-6.576-12.588-8.432-1.801-.713-3.768-.996-5.743-1.086zm8.957 14.298c1.797-.039 3.21.585 4.864 1.004l1.331.333c3.747.888 7.676 1.816 10.926 3.712.621.361 1.326.703 1.965 1.075.753.433 1.438.827 1.861 1.318.414.485.661 1.11.359 2.182.642-.88.702-1.803.303-2.601-.388-.794-1.14-1.423-1.943-1.896-.688-.4-1.399-.745-1.964-1.075-3.459-2.012-7.495-2.946-11.24-3.838l-1.314-.329c-1.655-.419-3.472-.53-5.147.115z"/><path d="M80.778 189.999c-1.163-.774-2.307-2.18-3.623-3.334-1.302-1.137-2.844-2.1-4.72-1.649-.887.262-1.354 1.061-1.722 1.44a14.14 14.14 0 0 0-1.219 1.572 18.42 18.42 0 0 0-1.695 3.171c-1.388 3.335-2.079 7.842-1.851 11.433.092 1.319.149 2.903 1.003 4.241 1.345 2.082 3.443 2.817 5.498 3.357a.59.59 0 0 0 .708-.69c-.916-3.9-.938-4.878-.738-8.298.142-2.487 1.565-5.033 2.36-6.563l.174-.347c.299-.616.936-1.708 1.706-2.593.775-.899 1.666-1.539 2.48-1.471 1.614.134 2.324.711 2.8 1.505.467.795.622 1.814.969 2.61-.246-.833-.257-1.835-.654-2.768-.389-.932-1.243-1.785-3.018-2.094-1.253-.203-2.412.587-3.333 1.517a11.69 11.69 0 0 0-1.983 2.785l-.167.327c-.773 1.511-2.307 4.168-2.486 7.022-.213 3.411-.166 4.73.767 8.634l.709-.692c-2.02-.53-3.728-1.176-4.823-2.867-.638-.968-.741-2.36-.821-3.69-.223-3.381.458-7.796 1.764-10.913.432-1.035.962-2.04 1.589-2.973a17.29 17.29 0 0 1 1.108-1.481c.396-.502.852-1.12 1.147-1.185 1.328-.432 2.683.152 4.079 1.131 1.382.962 2.738 2.242 3.992 2.863zm-33.952 12.099c.75 1.472 2.251 2.635 3.197 3.829.404.5.846.972 1.313 1.413l1.955 1.75 2.535 2.081c1.732 1.403 4.003 3.06 6.421 4.164 2.413 1.098 5.016 1.676 7.375.735 1.235-.487 2.326-1.474 3.095-2.927.456-.898 1.232-1.588 1.396-2.655-.428.984-1.234 1.349-1.985 2.263-.981 1.178-1.942 1.839-2.937 2.248-1.892.77-4.188.329-6.465-.713-2.272-1.036-4.484-2.64-6.17-4.009l-2.521-2.068-1.907-1.708-1.339-1.271c-1.263-1.233-2.878-1.902-3.963-3.132z"/></g><g stroke-miterlimit="10" stroke-linecap="round" stroke-linejoin="round" stroke="#070d1c" stroke-width="2.885"><path d="M135.873 121.92c-4.323 2.327-6.265 6.803-8.705 10.768m-69.458.788c-2.921-3.153-9.065-9.414-12.676-11.482-3.744-2.144-7.699-4.233-12.294-3.325-3.115.616-5.757 3.43-6.325 4.303-1.167 1.791-1.718 2.36-2.958 4.084-1.282 1.784-2.738 2.681-4.361 3.948"/></g><g fill="#070d1c"><path d="M67.232 50.482c-.011 2.959-.679 6.142-.039 9.2l.148.647c1.89 7.652 6.707 14.261 12.138 19.69 1.127 1.117 2.134 2.521 3.708 3.461.342.203.706.387 1.088.552 3.085 1.364 7.413 1.067 9.514-1.302-2.491 1.902-6.298 1.408-9.055.243a8.58 8.58 0 0 1-.958-.486c-1.313-.769-2.275-2.07-3.481-3.284-5.347-5.34-10.022-11.797-11.834-19.15l-.149-.62c-.652-2.733-.571-6.014-1.081-8.95zm53.832-.683c-.643 3.006-2.089 5.215-3.337 7.968l-.092.205c-3.031 6.762-7.95 12.81-13.499 17.784-.777.696-1.618 1.325-2.478 1.966a26.98 26.98 0 0 0-1.606 1.284c.009-.006.017-.013.026-.02a69.5 69.5 0 0 0-1.809 1.449l-1.884 1.492-1.584 1.172 1.789-.847 2.129-1.161a71.09 71.09 0 0 0 1.976-1.234l.026-.02 1.627-1.191c.859-.641 1.73-1.29 2.558-2.032 5.641-5.059 10.663-11.219 13.782-18.171l.091-.203c1.216-2.706 2.252-5.369 2.285-8.443zm-53.792 11.17c-.29.965-.618 1.891-.688 2.832-.213 2.823-.706 5.629-1.192 8.461a5.74 5.74 0 0 0-.077.92c-.022.644.043 1.321.107 1.998l.873-1.817a6.09 6.09 0 0 0 .234-.905l1.206-8.569c.075-.968-.171-1.957-.463-2.919zm12.177 29.288l-4.321-4.41-4.948-4.184c-2.337-1.965-5.338-4.068-6.727-5.843-.174-.219-.507-.567-.894-1.009-.384-.436-.806-.949-1.105-1.403-.239-.351-.4-.673-.429-.819-.017-.074-.012-.081-.028-.073-.005-.02.016-.04.058-.062.72-.319 1.508-.353 2.192-.305s1.241.161 1.456.043c-.229.053-.702-.203-1.377-.436s-1.556-.441-2.562-.2c-.249.063-.49.21-.636.439a1.15 1.15 0 0 0-.162.718c.044.462.252.888.522 1.32.35.542.803 1.082 1.202 1.538l.855.962c1.59 2 4.607 4.079 6.888 6.009l4.948 4.184c1.564 1.323 3.315 2.426 5.066 3.528z"/><path d="M41.604 79.586l3-1.851a.29.29 0 0 0-.021.017l1.098-.745c2.401-1.769 4.922-3.395 7.715-4.208l-.088.019 1.423-.181.033-.005 3.902-.616.952-.06c1.204-.069 2.543.012 3.821-.317-1.303-.135-2.425-.649-3.801-.767-.35-.029-.701-.03-1.049-.007-1.391.095-2.746.391-4.037.633l.033-.005-1.423.181a.57.57 0 0 0-.089.019c-3.011.88-5.638 2.594-8.076 4.386a13.96 13.96 0 0 0-1.037.851l-.021.017c-.825.825-1.579 1.733-2.335 2.641zm42.002 24.296c.584.293 1.165.474 1.712.488.552.027 1.04-.156 1.461-.375 1.281-.675 1.923-1.941 2.058-3.24a6.34 6.34 0 0 0-.859-3.83c-.482-.747-1.322-1.204-2.093-1.324.529.59.777 1.281 1.106 1.907.54.922.814 2.097.699 3.123-.118 1.035-.571 1.873-1.451 2.344-.299.162-.649.253-1.063.422a11.06 11.06 0 0 1-1.57.485zm-10.143 40.863c.5-3.256-.021-6.838-1.103-10.17-.759-2.344-1.646-4.62-2.396-6.741-2.516-7.095-4.774-14.991-8.473-21.94-1.617-3.026-3.755-5.722-6.229-7.998 2.057 2.668 3.64 5.579 5.211 8.54 3.624 6.799 5.875 14.641 8.403 21.784.76 2.144 1.642 4.408 2.386 6.71 1.056 3.276 2.137 6.518 2.201 9.815zm-.433 26.928c.29-1.099.623-2.161.692-3.241l.712-9.814c.028-1.111-.279-2.23-.65-3.315-.214 1.13-.486 2.211-.504 3.291-.067 3.242-.496 6.472-.71 9.764-.071 1.098.17 2.219.459 3.315zm-1.841 43.71c-.418.567-.849 1.067-1.025 1.635-.551 1.703-1.361 3.293-2.238 4.917-.297.539-.343 1.224-.382 1.915.555-.412 1.107-.818 1.398-1.367.883-1.639 1.731-3.291 2.319-5.11.205-.605.096-1.31-.073-1.99zm51.658 12.401l-.808 3.759.134-.177c-3.207 1.224-6.383 2.127-9.58 2.965-3.84 1.004-7.766 1.705-11.82 2.339-8.995 1.407-17.32 2.521-27.364 1.184l.496.5a22.66 22.66 0 0 0-.346-2.012c-1.013-4.638-3.615-8.785-6.121-12.6 2.026 4.117 4.041 8.462 4.994 12.846.138.632.249 1.269.329 1.909.032.256.24.466.496.5 10.215 1.362 18.69.221 27.694-1.187 4.069-.636 8.035-1.343 11.934-2.363a45.34 45.34 0 0 0 9.479-3.657c.082-.043.129-.112.135-.178l.348-3.828zm-1.357-19.056l-4.04-4.31c-1.302-1.336-2.4-2.788-3.222-4.61-.089-.199-.285-.332-.503-.34-3.403-.137-5.916.086-8.768.308-1.347.108-2.468.1-3.479.076-1.948-.008-3.566.03-5.39.494 1.877.073 3.328.515 5.35.647 1.04.048 2.211.041 3.609-.066l8.632-.306-.503-.34c.885 1.968 2.08 3.541 3.447 4.943 1.367 1.408 3.072 2.427 4.867 3.504zm-38.509 78.773l5.434.797a.17.17 0 0 0 .023.001c.336.016.797.058 1.279.014.397-.039.823-.124 1.212-.384 1.19-.804 1.838-1.92 2.25-3.065s.625-2.349.946-3.452c.751-2.593 1.001-4.983 1.296-7.586l.439-4.398c.123-2.255-.323-4.547-1.523-6.561.635 2.267.485 4.337.37 6.499l-.433 4.33c-.295 2.612-.541 4.922-1.258 7.395l-.923 3.38c-.374 1.023-.878 1.864-1.814 2.503-.131.093-.371.164-.67.19-.361.034-.783.022-1.167.035h.022c-1.823-.004-3.654.149-5.484.302z"/><path d="M83.262 287.521c.55-1.168 1.047-2.074 1.494-3.407.312-1.024.59-2.283.972-4.028.883-4.112.647-5.535.912-8.357l.12-1.554c.12-1.668-.264-3.718-.554-4.452.013.781-.504 2.736-.597 4.378l-.118 1.521c-.272 2.97-.034 4.207-.891 8.222l-.915 3.99c-.256 1.357-.345 2.396-.423 3.687zm4.689.541c3.517 5.318 2.938 14.047 4.154 20.56 2.404 12.643 5.212 25.354 6.275 38.182.327 3.939.879 7.842 1.072 11.794.119 2.44.454 4.833-.506 7.123.995-2.275.695-4.693.611-7.127-.135-3.96-.631-7.878-.899-11.812-.878-12.867-3.507-25.651-5.724-38.312-1.135-6.367-.314-15.124-4.012-21.033-.169-.27-.53-.345-.797-.173s-.349.532-.173.798z"/><path d="M88.685 288.264c2.281 2.97 2.96 5.674 4.6 9.205 4.044 8.67 6.908 17.444 9.614 26.624 1.697 5.758 3.883 11.315 4.99 17.232-.986-5.939-3.065-11.561-4.639-17.331-2.521-9.24-5.211-18.096-9.107-26.914-1.532-3.456-2.171-6.286-4.535-9.509-.189-.257-.553-.306-.808-.115s-.309.555-.115.808zm56.881-46.754c1.27 4.377 2.04 9.221 2.8 14.15 1.1 7.091 1.565 14.468 1.788 20.914.266 7.679-.01 15.066-1.019 22.575l-.631 4.607c-.474 3.362-.351 6.615-1.234 9.875 1.266-3.136 1.549-6.485 2.217-9.704.319-1.544.585-3.085.791-4.624 1.019-7.58 1.297-15.037 1.03-22.769-.225-6.471-.691-13.889-1.802-21.051-.778-4.98-2.165-9.781-3.94-13.973zM98.519 353.111c-7.198 12.491-9.121 24.316-12.142 35.905-1.201 4.609-2.24 9.263-3.18 13.806l-3.598 18.061c-2.151 10.304-4.531 21.598-4.351 32.178.18-10.578 2.919-21.708 5.276-31.975 1.263-5.499 2.478-11.653 3.802-18.03l3.064-13.783c2.862-11.716 4.363-23.431 11.129-36.162zM75.176 454.23c2.626 2.55 5.146 5.277 8.331 7.287 3.15 1.988 6.63 3.263 10.194 4.139 2.782.684 5.616 1.126 8.409 1.518 1.846.26 3.659.249 5.478.194 2.8-.078 5.448-.314 7.428-2.521-2.16 2.027-4.639 2.02-7.426 1.918-1.811-.069-3.582-.171-5.328-.506-2.767-.529-5.557-1.053-8.285-1.724-3.498-.86-6.895-1.958-10.065-3.704-3.18-1.749-5.917-4.262-8.736-6.601zm-63.467 34.487c1.406 1.726 3.313 2.21 5.082 3.34 3.798 2.412 8.366 5.253 13.183 5.624 2.535.189 5.114-.316 7.632-1.124 3.872-1.244 7.608-3.204 10.954-4.507 4.781-1.868 11.357-2.343 13.359-8.253-2.39 5.708-8.582 5.669-13.666 7.414-3.473 1.194-7.251 3.043-10.999 4.247-2.441.785-4.865 1.295-7.216 1.188-4.46-.194-9.126-2.715-13.056-4.908-1.901-1.058-3.76-1.39-5.272-3.021zm48.868-66.315l-.683 30.12c.019 4.21.122 8.423.317 12.638.273 5.86 1.687 11.58 1.858 17.408.164-5.832-.922-11.684-.966-17.432l-.055-12.619-.471-30.115z"/><path d="M50.291 491.822c-.01.94.171 1.911.17 2.752l.07 1.533.474 5.471 1.134 7.442c.232 1.424.747 2.797 1.235 4.181.081-1.465.137-2.942-.096-4.367l-1.127-7.401-.47-5.433a10.19 10.19 0 0 0-.272-1.552c-.245-.982-.77-1.759-1.118-2.626zm2.832 21.655c-.851.386-1.702.772-2.359 1.372l-.99.903.021-.018-3.314 2.741.037-.029-1.933 1.353c-.417.292-.779.662-1.119 1.064l.02-.012-.829.828c.394-.062.79-.112 1.188-.234l.02-.012c.495-.182.965-.396 1.383-.688l1.934-1.354a.36.36 0 0 0 .036-.027l3.314-2.741.021-.019.99-.903c.657-.6 1.119-1.412 1.581-2.224zm-10.149 10.269l-.176 1.743c-.177.896-.434 1.488-.669 2.136l-1.546 4.201c-.361.912-.771 1.773-1.264 2.581-.797 1.313-1.848 2.366-2.953 3.541-3.455 3.67-4.819 4.733-9.391 7.389-1.008.585-3.192 1.658-5 2.405-.844.355-1.602.667-2.102.821-2.47.764-3.103 1.47-5.679 1.328 2.472.673 3.559.091 5.923-.344.611-.122 1.422-.382 2.298-.739 1.867-.771 4.053-1.845 5.139-2.472 4.583-2.649 6.195-3.905 9.654-7.598 1.085-1.157 2.206-2.268 3.097-3.731.534-.876.971-1.798 1.351-2.755.552-1.386.909-2.87 1.208-4.424.124-.653.288-1.357.286-2.314-.028-.604-.107-1.185-.175-1.768zM1.06 533.893c-.197 1.267-.756 2.515-.806 3.889-.024.592-.009 1.19.103 1.782.172.799.784 1.689 1.43 2.604l1.608 2.188c.887 1.367 1.976 2.475 3.286 3.287 1.137.717 2.546.942 3.984.863-1.346-.555-2.378-1.238-3.375-1.844-1.153-.715-2.117-1.689-2.926-2.934-.336-.516-1.011-1.359-1.638-2.232-.624-.854-1.186-1.789-1.234-2.147-.089-.469-.106-.98-.083-1.52.057-1.224.017-2.692-.347-3.936z"/><path d="M6.695 519.434c-.451 1.487-.741 2.095-1.101 2.662s-.832 1.142-1.567 2.511c-.182.339-.679.976-1.197 1.804-.98 1.612-2.127 3.993-1.647 6.815.386 2.25.851 3.522 1.664 4.544.814 1.014 1.843 1.698 3.348 2.981 1.811 1.534 5.199 3.758 9.321 3.711a16.03 16.03 0 0 0 1.992-.161c2.991-.401 6.196-1.887 8.458-3.421-2.524 1.068-5.825 1.87-8.619 2.279-.643.09-1.265.142-1.848.149-3.673.058-6.871-1.996-8.558-3.436-1.554-1.315-2.551-2.003-3.191-2.82-.64-.81-1.054-1.83-1.431-4.021-.415-2.389.572-4.484 1.486-6.035.465-.812.886-1.462 1.102-1.978.553-1.396.889-1.999 1.171-2.671s.46-1.375.615-2.913z"/><path d="M6.484 519.61c.574-1.505 1.706-3.047 2.753-4.779l3.493-5.633c1.889-3.195 3.701-6.305 5.161-9.865a13.78 13.78 0 0 0 .294-.778c.559-1.579.946-3.227 1.333-4.875-.85 1.464-1.699 2.928-2.378 4.465l-.316.75c-1.422 3.467-3.2 6.524-5.086 9.716-1.017 1.722-2.347 3.68-3.492 5.638-1.023 1.801-1.643 3.756-1.76 5.361zm24.651-267.992c-1.339-.276-2.322.494-3.386 1.129l-.023.018-1.913 1.446-.025.023-1.576 1.449-1.406 1.454-.057.06a.49.49 0 0 0-.046.056l-1.158 1.652c-1.662 2.437-2.123 5.223-4.521 6.456 2.619-.798 3.759-3.751 5.397-5.817l1.216-1.613-.046.055.056-.061 1.348-1.484 1.433-1.569-.025.023 1.707-1.685-.024.018c1.01-.821 1.688-1.631 3.048-1.61z"/><path d="M28.38 249.932c-1.542.874-2.98 2.148-4.035 3.677s-1.717 3.286-2.368 4.904l3.318-4.249c1.018-1.474 1.893-3.012 3.085-4.332zm-11.112 15.382c.481.258 1.009.135 1.504.121a5.39 5.39 0 0 0 1.685-.321c.529-.197 1.02-.491 1.459-.86.396-.333.789-.704.99-1.19-.327.412-.755.629-1.206.872-.48.255-.958.456-1.444.637a14.71 14.71 0 0 1-1.537.486c-.539.134-.919.365-1.45.255zm60.501 193.145c-.414 1.566-.838 3.129-.996 4.714l-1.099 8.432-1.235 5.661c-.381 1.551-.493 3.182-.548 4.798.616-1.494 1.286-2.966 1.668-4.523l1.252-5.742 1.111-8.512c.158-1.596.006-3.217-.153-4.828zm-2.548 24.578c.891 1.405 1.996 2.594 3.298 3.463l3.351 2.133 7.675 5.125.895.452c1.498.683 3.068.812 4.589 1.253-1.276-.961-2.751-1.676-4.108-2.302l-.814-.411c-2.58-1.438-5.022-3.407-7.611-5.085l-3.337-2.125-3.939-2.503zm20.758 13.777c1.343 1.88 2.258 3.992 3.772 5.849a21.11 21.11 0 0 0 1.817 1.961c2.18 2.067 4.49 3.662 7.136 5.317 2.166 1.346 5.352 2.084 7.721 2.596 2.935.627 5.9.527 8.746.219l3.009-.444c3.239-.633 6.354-2.319 7.535-5.446-1.773 2.829-4.671 3.683-7.761 4.314-.961.192-1.944.325-2.908.429-2.788.303-5.628.389-8.379-.201-2.338-.496-5.459-1.252-7.352-2.445-2.62-1.64-4.855-3.187-6.952-5.177l-1.836-1.814c-1.555-1.593-2.882-3.547-4.547-5.158zm40.015 10.12c.626-1.645.518-3.612.086-5.286l-.055-.211c-.98-3.606-2.397-6.923-4.74-9.941-.746-.96-1.292-1.564-1.727-1.934-.222-.185-.41-.316-.645-.399-.118-.039-.256-.066-.417-.044s-.333.11-.441.229c-.217.248-.23.475-.242.672-.005.2.023.397.065.608.086.418.241.884.426 1.337s.421.883.657 1.211c.119.165.236.305.37.424.137.105.279.262.631.238.172-.021.327-.14.396-.25a.74.74 0 0 0 .117-.314c.029-.2.012-.413-.037-.694-.101-.556-.354-1.367-.828-2.545.078 1.266.091 2.105.06 2.596-.016.243-.048.403-.073.448-.011.003-.007-.013.008-.037.023-.047.124-.133.236-.146.231-.009.223.061.193-.001-.034-.047-.102-.153-.174-.29a12.93 12.93 0 0 1-.488-1.078c-.164-.4-.301-.818-.363-1.131a1.65 1.65 0 0 1-.043-.346c.001-.015.002-.026.003-.032-.005.015-.019.062-.075.122a.42.42 0 0 1-.232.121c-.075.007-.115-.004-.116-.004s.111.051.267.187c.322.269.844.833 1.56 1.759 2.228 2.872 3.584 6.027 4.538 9.537l.057.204c.449 1.635 1.092 3.235 1.026 4.99zM66.15 33.615c-.809.981-1.694 1.998-2.178 3.242-.531 1.369-.887 2.842-.726 4.415.078.73.391 1.33.657 1.863.273.532.496 1 .531 1.399a1.56 1.56 0 0 1-.091.189c-.081.157-.226.357-.298.684-.146.761-.334 1.85-.109 2.871.108.472.351.936.755 1.26.528.403 1.071.358 1.414.455.512.141.803.233 1.345.099-.561-.128-.657-.261-1.092-.599-.398-.278-.891-.487-.972-.673-.159-.221-.251-.475-.324-.799-.165-.695-.028-1.682.116-2.391-.003-.019.068-.163.177-.352.099-.192.26-.458.228-.861-.076-.699-.386-1.273-.65-1.802s-.496-1.011-.539-1.461c-.136-1.323.159-2.605.654-3.879.442-1.14.791-2.417 1.103-3.66zm6.696 175.99l4.351 2.924c4.471 2.551 8.583 5.542 12.526 8.881 1.31 1.116 2.796 2.051 4.285 3.028-1.089-1.406-2.207-2.786-3.539-3.909-3.985-3.375-8.155-6.41-12.7-9.003-1.513-.869-3.207-1.431-4.923-1.921zm10.704-2.629c1.553 1.456 3.367 2.974 5.41 3.841 1.239.502 2.545.435 3.469.836.338.138.656.376 1.04.646l.629.397c1.172.628 2.536 1.168 3.811 1.527a10.5 10.5 0 0 0 1.928.357c.535.055 1.025.094 1.772.255l-.053-.014 2.307.734-.044-.016c.223.091.624.268 1.072.375.444.096.985.179 1.514-.17a2.68 2.68 0 0 0 1.115-1.78c.029-.208.006-.339-.015-.512l-.097-.525-.203-.841a2.34 2.34 0 0 0-.582-1.038l-.668-.643c-.869-.916-1.866-1.845-2.972-2.55-.962-.604-1.989-.977-2.716-1.541-1.778-1.344-2.946-3.416-4.851-5.042a14.29 14.29 0 0 0-2.114-1.477c-3.484-1.992-7.578-2.206-11.395-2.018 3.835.389 7.656 1.193 10.82 3.018.679.39 1.329.84 1.944 1.359 1.711 1.429 2.884 3.524 4.895 5.076.931.704 1.992 1.078 2.798 1.599.982.624 1.922 1.492 2.754 2.37.277.29.515.478.665.641s.233.282.307.545a17.84 17.84 0 0 1 .19.783 6.93 6.93 0 0 1 .082.446c.009.062.015.115.016.148.002.017.002.028.002.032 0-.004-.001-.001.002-.022a1.52 1.52 0 0 1-.64 1.028c-.015.033-.262.077-.585-.009-.319-.075-.664-.222-.9-.32-.016-.006-.025-.01-.044-.015l-2.307-.734c-.02-.007-.031-.01-.052-.014-.812-.177-1.381-.223-1.898-.276s-.992-.113-1.734-.321c-1.19-.333-2.492-.85-3.577-1.432-.169-.09-.337-.202-.515-.326-.359-.248-.758-.553-1.29-.753-1.301-.464-2.567-.287-3.577-.609-1.956-.599-3.96-1.803-5.713-3.015zm11.173-6.433c1.189.195 1.985.829 2.977 1.312l1.298.669c2.524 1.287 4.823 2.962 6.684 5.055.72.815 1.604 1.513 2.456 2.337-.346-1.126-.821-2.241-1.594-3.104-1.972-2.217-4.39-3.974-7.022-5.316l-1.312-.676c-1.042-.52-2.362-.697-3.487-.277zm6.265 16.469c1.154.443 2.125.979 3.016 1.702l1.35 1.107c.973.739 2.048 1.525 3.45 1.729 1.575.219 3.232-.102 4.63-.2.586-.054 1.319.151 2.188.066 1.563-.185 3.535-.515 4.832-.038a2.7 2.7 0 0 1 .428.198c.638.364 1.256.957 1.665 1.671s.613 1.542.327 2.394c.549-.711.671-1.727.399-2.688s-.92-1.868-1.82-2.38a3.83 3.83 0 0 0-.614-.282c-1.758-.604-3.833-.18-5.345-.022-.571.075-1.289-.121-2.144-.069-1.486.113-3.081.4-4.382.207-1.044-.145-1.959-.769-2.913-1.503-.47-.36-.972-.716-1.511-1.009-1.153-.626-2.332-.826-3.556-.883z"/><path d="M119.801 220.138c.823-.1 1.647-.2 2.338-.556l2.482-1.279c.339-.177.636-.411.917-.581.279-.177.52-.255.616-.238.396.021.783.36 1.097.967.32.635.872 1.395 1.14 1.987.172-.612.334-1.664-.115-2.517-.391-.753-1.025-1.504-2.036-1.588-.54-.031-.954.197-1.304.404l-.842.539-2.484 1.28c-.691.357-1.25.969-1.809 1.582zM88.02 198.45c-.571-.612-1.059-1.269-1.71-1.716l-2.438-1.71-3.512-2.31c-.654-.441-1.46-.652-2.276-.903.466.714.966 1.414 1.632 1.86l3.511 2.311 2.43 1.704c.673.459 1.534.66 2.362.764zm62.84 40.556c-.168.976-.073 2.013.281 2.876l.551 1.386c1.038 2.892 1.51 4.309 2.717 6.118a5 5 0 0 0 .922 1.088c.389.351.868.687 1.419 1.05l-.685-1.607a7.84 7.84 0 0 0-.696-1.171c-1.116-1.676-1.542-2.943-2.59-5.868l-.57-1.436c-.354-.857-.93-1.537-1.349-2.436zm14.229 17.805c-.341-.014-.605.002-.851.128s-.437.371-.571.685c-.183.439-.321 1.027-.316 1.896l-.163 3.595c-.053.85-.49 2.839-1.286 4.233-.487.864-.773 1.696-1.578 2.152.917.087 2.01-.573 2.583-1.585.915-1.634 1.354-3.67 1.432-4.72l.166-3.643c.053-.867-.048-1.416-.056-1.751-.007-.246 0-.37.078-.516s.267-.3.562-.474zm3.408.671c-.224 1.553-.202 2.192-.19 2.799.022.603-.007 1.158-.078 2.719l-.01.207c-.048.887-.296 2.142-.68 3.308-.379 1.167-.91 2.259-1.424 2.81-1.187 1.296-1.926 2.35-2.321 3.232-.386.868-.475 1.651-.06 2.276.433.61 1.156.76 1.882.723.742-.043 1.579-.288 2.45-.698.957-.45 1.968-1.109 2.785-2.035.826-.914 1.474-2.043 1.842-3.246-.705 1.044-1.591 1.868-2.484 2.558-.9.678-1.789 1.275-2.637 1.679-.766.364-1.489.562-2.02.59-.546.032-.808-.119-.866-.224-.076-.091-.161-.437.161-1.153.311-.701.983-1.684 2.118-2.922.711-.784 1.254-1.972 1.67-3.23s.678-2.575.736-3.605l.007-.245c-.005-1.598-.176-2.251-.319-2.847-.153-.59-.318-1.137-.562-2.696zm4.56 11.119c.54-.435 1.047-.956 1.236-1.583.562-1.873.706-3.822.788-5.72.026-.635-.245-1.27-.505-1.901-.31.609-.62 1.228-.648 1.851-.08 1.873-.225 3.727-.74 5.437-.172.568-.112 1.216-.131 1.916z"/><path d="M169.971 254.984c1.354-.625 2.077-.81 2.42-.635.345.131.625.679 1.128 1.761.284.611 1.022 3.072 1.462 4.674.128.483.216.901.24 1.142.118 1.118.21 2.294.111 4.312-.049 1.091-.448 2.627-.559 3.947-.051.666-.047 1.29.197 1.856.226.579.862 1.014 1.585 1.008 1.425.054 2.517-.786 3.229-1.89.727-1.113 1.179-2.535 1.484-3.961a30.92 30.92 0 0 0 .599-6.002c-.024-1.44-.196-2.638-.404-3.73l-.867-3.883c-.246-1.314-.082-2.245.042-3.085.124-.834.177-1.571-.367-2.334.391.856.218 1.448-.031 2.243-.25.789-.609 1.785-.515 3.281.091 1.434.363 2.676.605 3.993.199 1.057.36 2.175.384 3.534.004.212.002 3.047-.574 5.743-.285 1.346-.72 2.658-1.32 3.568-.617.918-1.295 1.39-2.229 1.37-.409-.04-.437-.101-.566-.323-.112-.234-.154-.713-.103-1.294.093-1.173.495-2.706.562-3.984.104-2.072.006-3.348-.115-4.491-.038-.355-.137-.8-.273-1.315-.436-1.714-1.412-4.049-1.873-4.772-.648-.981-1.025-1.627-1.696-1.809-.672-.138-1.323.242-2.556 1.076zm4.606-7.795c-.394.581-.782.697-1.341 1.093l.015-.014c-.172.109-.338.227-.494.354l-1.417 1.156-1.961 1.615c.007-.004.013-.009.019-.014-.756.557-1.615.9-2.448 1.009-.704.108-1.408.254-2.18.147.597.48 1.434.801 2.29.709.99-.125 1.981-.528 2.851-1.167l.018-.015 1.961-1.614 1.414-1.155a4.98 4.98 0 0 0 .446-.414c.434-.504.797-.995.827-1.69z"/><path d="M171.359 242.772c1.263.782 2.226 1.001 3.136 1.399.917.396 1.787.969 3.267 2.45l.303.298 1.863 1.712c.675.552 1.349 1.032 2.043 1.25.681.205 1.692.541 2.669.595.49.024.987-.017 1.446-.243.461-.219.841-.676.974-1.256.252-1.177-.399-2.241-1.049-3.126-.669-.88-1.423-1.565-1.669-1.779-2.664-2.295-3.377-4.281-5.418-6.5l-1.12-1.264c-.565-.655-.862-1.041-1.345-1.445-.484-.398-1.09-.751-2.308-1.325-1.657-.769-1.769-.874-2.792-1.597.839.904.967 1.091 2.465 2.158l1.948 1.519c.342.347.578.718 1.151 1.426l1.156 1.314c1.87 1.996 2.658 4.118 5.509 6.588.201.172.916.827 1.503 1.603.606.771.999 1.68.847 2.154-.083.3-.184.396-.367.498-.185.095-.495.144-.87.123-.754-.037-1.708-.336-2.394-.547-.406-.117-1.028-.523-1.644-1.037s-1.255-1.124-1.793-1.648l-.309-.296c-1.61-1.513-2.808-2.019-3.852-2.272-1.053-.251-1.945-.254-3.35-.752zM119.633 56.143c-.12.214-.234.425-.204.611l.146 1.646c-.004.182.135.369.27.576.164-.185.313-.383.307-.58-.005-.59-.072-1.153-.152-1.721-.023-.19-.193-.359-.367-.531z"/><path d="M127.466 48.67c.752 1.08 1.836 1.069 3.022 1.011l1.373.099a.2.2 0 0 0 .055-.005l2.067-.415-.25-.467-1.149 1.065-.695.657.015-.013c-.379.324-.855.461-1.311 1.067-.098.131-.06.33.079.417 1.863 1.157 3.861 3.346 3.725 5.428l.491-.189c-1.477-1.465-3.808-2.036-5.55-2.786-.35-.149-.782-.322-1.24-.378s-.966.014-1.369.389c-.201.207-.217.433-.242.647-.018.212-.008.422-.008.537 0 .949.05 1.784.308 2.621l.373-.357c-.665-.208-1.047-1.217-1.412-2.016l-.198-.376c-.311-.544-.705-1.037-1.127-1.554-.088-.108-.246-.133-.354-.062-1.897 1.245-3.098 3.311-4.225 4.985 1.295-1.559 2.709-3.464 4.51-4.529l-.354-.062 1.049 1.509.179.339c.366.728.695 1.907 1.738 2.309.21.081.442-.134.373-.357-.232-.751-.284-1.52-.283-2.451l.006-.49c.006-.082.018-.158.034-.208a.38.38 0 0 1 .021-.054c.255-.236.55-.289.911-.248s.748.192 1.084.336c1.806.764 4.07 1.353 5.369 2.664.17.171.481.051.492-.189.112-2.476-2.046-4.713-3.995-5.948l.078.417c.344-.466.709-.561 1.215-.965l.015-.013.695-.657 1.129-1.086c.197-.192.008-.531-.249-.467l-2.042.526.055-.005-1.395.012c-1.202.152-2.141.292-3.013-.688zM66.091 33.775c-.004-.178.802.055 1.741-.396l2.248-1.177c.095-.05.138-.181.091-.282a.23.23 0 0 0-.286-.115c-.896.327-2.19.536-3.004.327a1.7 1.7 0 0 1-.306-.106l.04.023-1.349-.915.018.014c-.266-.212-.443-.52-.665-.899-.32-.536-.258-1.078-.301-1.8l-.473.24 1.291 1.083a.22.22 0 0 0 .029.022c1.355.878 2.898.864 4.228.003.138-.09.173-.287.074-.417-1.459-1.921-3.76-2.934-5.376-4.448-.009-.008-.014-.013-.025-.021l-1.277-.943-.243-.159-.032-.03c-.004-.007.016.048-.002.093.005.006-.04.063-.072.068s-.022.001.008.008c.063.011.173.062.254.099.492.215 1.103.295 1.664.294.197-.001.388-.013.564-.035 1.788-.227 3.911-.643 5.151-2.077.32-.37.628-.678.75-1.162-.179.465-.499.714-.863 1.052-1.331 1.222-3.317 1.413-5.106 1.618a4.61 4.61 0 0 1-.497.027c-.5.003-1.057-.079-1.429-.245-.062-.026-.202-.101-.373-.137a.59.59 0 0 0-.317.015.46.46 0 0 0-.282.299.45.45 0 0 0 .044.364c.053.089.115.146.174.196.117.094.242.16.277.185l1.265.934-.025-.021c1.725 1.592 3.985 2.604 5.308 4.373l.075-.417c-1.178.743-2.404.755-3.606-.003l.03.022-1.291-1.083c-.189-.158-.492-.003-.473.24.048.637-.049 1.323.379 2.055.217.364.421.749.8 1.056l.019.014 1.349.915a.29.29 0 0 0 .04.023 2.28 2.28 0 0 0 .411.143c1.033.253 2.371-.054 3.311-.476l-.196-.397-2.123 1.384c-.814.518-1.657.392-1.641.573zm27.577 33.47c.834.139 1.684-.115 2.324-.234.401-.084.997-.077 1.593-.181.585-.101 1.255-.357 1.605-1.046l.018-.041c.376-.986.271-1.992.222-2.882l.001.032.016-1.114c.011-.782-.195-1.568-.4-2.353-.227.779-.455 1.558-.466 2.341l-.016 1.114c-.001.014 0 .02.001.032.059.909.122 1.789-.165 2.518l.019-.041c-.181.346-.492.496-.987.589-.485.089-1.069.079-1.604.183-.895.197-1.393.784-2.16 1.084zM70.422 40.102c-.231.415-.572.73-.744 1.069a2.51 2.51 0 0 1-.221.352c-.25.35-.699.679-.912 1.352-.279.928.075 1.577.152 2.141a1.8 1.8 0 0 0 .043.198l.002-.086c.011.37.145.756.279 1.141.223-.342.445-.684.545-1.041l.002-.085a1.26 1.26 0 0 0-.016-.267c-.141-.765-.359-1.171-.178-1.749.104-.369.409-.617.776-1.083a3.39 3.39 0 0 0 .297-.474c.241-.452.163-1.041-.024-1.469zm9.627 4.634c.855-.227 1.593-.137 2.402-.255l.23-.041c.717-.154 1.371-.308 1.991-.274 1.811.089 3.51.981 4.917 2.194a6.85 6.85 0 0 0 .522.402c.591.426 1.185.597 1.746 1.033-.196-.687-.64-1.287-1.021-1.79-.148-.187-.312-.363-.494-.52-1.537-1.322-3.453-2.361-5.611-2.472-.843-.04-1.597.153-2.288.297l-.215.051c-.821.208-1.628.688-2.178 1.375zm34.878 10.71c-.152-.62-.488-1.38-1.096-1.944-.791-.652-1.761-1.233-2.788-1.721-1.481-.707-2.888-.709-4.26-.363-.799.165-1.494.717-2.195 1.363.963-.022 1.796-.044 2.472-.243 1.221-.294 2.247-.29 3.491.287.956.446 1.843 1.003 2.572 1.564.614.411 1.283.675 1.804 1.056z"/><path d="M93.32 47.395c.118-.483.016-1.134-.214-1.727-.227-.599-.588-1.137-.938-1.498l-.144-.152c-1.917-1.988-4.818-3.389-7.597-3.759a10.37 10.37 0 0 0-1.411-.088c-.526.005-.997.102-1.595.258l-.196.041c-.666.512-1.186 1.077-1.176 1.275.088-.152.786-.243 1.572-.362l-.195.041a6.8 6.8 0 0 0 1.593.19 8.8 8.8 0 0 1 1.221.076c2.429.31 5.116 1.617 6.743 3.327l.136.142c.316.346.752.706 1.177 1.062.422.362.825.724 1.025 1.175zm11.514 2.884c.557-.153 1.773.028 2.589-.171.358-.068.683-.087.796-.07a38.71 38.71 0 0 1 6.059 1.195.82.82 0 0 1 .085.029l2.163 1.043c-.162-.785-.642-1.995-1.611-2.375a2.12 2.12 0 0 0-.247-.086 40.07 40.07 0 0 0-6.281-1.239c-.384-.04-.781.006-1.223.084-1.018.136-2.041 1.076-2.33 1.59z"/><path fill-rule="evenodd" d="M87.201 44.147c.811 0 1.468.637 1.468 1.422s-.657 1.422-1.468 1.422-1.469-.636-1.469-1.422.657-1.422 1.469-1.422z"/><path d="M87.2 44.147a1.41 1.41 0 0 1 .634.602c.116.214.157.396.213.558.028.082.043.169.043.262.004.45-.386.845-.891.845s-.895-.395-.891-.845c0-.093.015-.18.043-.262.056-.162.097-.344.213-.558a1.41 1.41 0 0 1 .635-.602zm0 0a1.43 1.43 0 0 0-1.1-.054 1.38 1.38 0 0 0-.839.839 1.95 1.95 0 0 0-.106.637c.003 1.121.928 1.999 2.045 1.999s2.041-.878 2.045-1.999a1.95 1.95 0 0 0-.106-.637 1.38 1.38 0 0 0-.839-.839 1.43 1.43 0 0 0-1.1.054z"/><path fill-rule="evenodd" d="M109.213 51.955c.811 0 1.468.637 1.468 1.422s-.657 1.422-1.468 1.422-1.469-.637-1.469-1.422.658-1.422 1.469-1.422z"/><path d="M109.211 51.955a1.41 1.41 0 0 1 .635.602c.116.214.157.396.213.558.028.082.044.169.044.262.003.45-.387.845-.892.845s-.894-.395-.891-.845c0-.093.016-.18.044-.262.056-.162.097-.344.213-.558a1.41 1.41 0 0 1 .634-.602zm0 0a1.43 1.43 0 0 0-1.1-.054c-.37.131-.7.435-.839.839a1.98 1.98 0 0 0-.106.637c.004 1.12.928 1.999 2.045 1.999s2.042-.879 2.046-1.999a1.98 1.98 0 0 0-.106-.637c-.139-.404-.469-.708-.839-.839a1.43 1.43 0 0 0-1.101.054zm-10.788 22.01c-1.166 1.11-2.099 1.489-3.135 1.918-.807.34-1.767.578-2.93.877-1.655.419-2.644.237-3.554.023-1.04-.241-1.872-1.209-2.321-2.292l-.013-.028-.429-.888c-.573-1.185-1.406-2.245-2.239-3.304.314 1.31.627 2.621 1.2 3.807l.429.887-.013-.028c.542 1.288 1.552 2.581 3.115 2.969a7.83 7.83 0 0 0 4.113-.028l3.089-.932c1.205-.517 2.129-1.505 2.687-2.98zm-13.411-1.776l-.351-1.606-.181-.936c-.019-.127-.029-.234-.028-.298.001-.032.005-.052.009-.053s.008.02-.009.075c-.005.031-.031.073-.051.095s-.033.028-.023.028c.018-.001.114-.008.239.005a3.95 3.95 0 0 1 1.121.309l5.624 3.101a2.23 2.23 0 0 0 .948.207l.665.016 3.088.354.587.098c.271.048.619.05.942.077.325.016.564.104.578.102.083.029.105.241-.025.506-.116.258-.316.53-.428.702.172-.113.459-.273.703-.496.23-.216.484-.535.341-.988-.187-.432-.59-.588-.958-.733-.37-.133-.766-.209-.901-.254-.212-.062-.428-.111-.645-.149-1.069-.182-2.153-.236-3.136-.362-.332-.041-.597-.02-.789-.025s-.314-.021-.475-.095c-1.869-.886-3.639-2.123-5.61-3.095-.3-.141-.912-.368-1.54-.423-.215-.015-.434-.007-.667.071-.226.07-.503.269-.6.576-.067.218-.039.354-.013.497a2.38 2.38 0 0 0 .14.424 6.72 6.72 0 0 0 .494.913l.95 1.36z"/><path d="M84.281 70.574s4.46 3.032 6.134 3.652c1.471.546 6.184 1.08 6.184 1.08l-3.653 1.538-4.279.036-4.386-6.305z"/><path d="M84.281 70.574c1.472 1.309 2.939 2.67 4.719 3.604l1.177.574a.66.66 0 0 0 .074.028c2.081.611 4.209.828 6.273 1.098l-.149-1.104-3.653 1.538.219-.045-4.279.036.478.247-1.033-1.485c-1.118-1.606-2.472-3.048-3.826-4.49zm0 0l2.879 5.149 1.033 1.486c.109.156.288.249.479.247l4.278-.035a.56.56 0 0 0 .219-.046l3.653-1.537a.58.58 0 0 0 .348-.609.58.58 0 0 0-.497-.495c-2.085-.27-4.152-.487-6.096-1.06l.074.028-1.116-.545-5.255-2.581zm84.534 191.856c.202-.257.475-.742.511-1.296.016-.207-.039-.417-.074-.635l-.144-.672-.405-1.383c-.16-.457-.344-.899-.554-1.304-.22-.394-.416-.794-.749-1.045-.441-.332-1.034-.392-1.377-.18.354.208.42.552.584.894.122.253.351.509.517.862.179.344.344.74.49 1.155a13.08 13.08 0 0 1 .372 1.269l.131.616c.043.198.053.392.118.566.169.464.47.842.58 1.153zm-11.971-11.192c.02.823.087 1.518.242 2.084a6.07 6.07 0 0 0 .568 1.36c.283.479.612.799 1.008.943s.813.095 1.227-.056c.738-.25 1.086-.062 1.498.299.4.366.736.933 1.238 1.306.302.23.726.366 1.171.23.446-.13.89-.482 1.379-1.119-.683.427-1.163.596-1.481.624s-.499-.046-.729-.202c-.37-.26-.712-.814-1.184-1.261-.461-.453-1.18-.77-2.09-.419-.342.123-.604.138-.832.056s-.464-.282-.708-.694c-.18-.3-.346-.712-.533-1.238l-.774-1.913z"/><path d="M156.819 252.273c-.042-.84.214-1.099.494-1.161.304-.082.844.032 1.506.233 1.304.415 3.227.903 4.368.928-1.052-.388-2.664-1.473-4.17-1.742-.743-.142-1.429-.147-1.911.131-.505.297-.596.877-.287 1.611zm-2.267 10.157c-.905.179-1.487.554-1.685 1.177-.188.629.12 1.26.562 1.678.537.517 1.258.907 1.954 1.177.708.262 1.336.42 1.899.335 2.093-.377 3.708-1.293 4.866-2.849.686-.846.976-2.025 1.038-3.341l-1.961 2.648c-.997 1.316-2.257 2.051-4.152 2.408-.106.038-.703-.047-1.276-.278-.586-.223-1.205-.574-1.565-.928-.304-.307-.438-.489-.48-.696-.053-.213.098-.697.8-1.331z"/><path d="M160.323 255.262c-.48.176-.914.399-1.255.686-.349.283-.573.642-.738.999-.692 1.424-.726 2.798-.849 3.957.005.022-.06.19-.232.364s-.421.366-.709.508l-.897.418c-.313.139-.665.265-1.092.24.281.319.709.546 1.171.614a2.12 2.12 0 0 0 1.333-.239c.4-.2.752-.454 1.03-.746s.493-.618.543-1.041c.123-1.222.172-2.409.739-3.569.151-.289.316-.578.451-.943l.505-1.248zm-.458 14.497c-.331-.027-.638.05-.871.257a1.09 1.09 0 0 0-.348.855c.004.338.175.639.377.909.208.27.475.512.791.719.631.412 1.459.69 2.399.698.543.007 1.015-.131 1.393-.335s.683-.457.835-.757c.171-.307.227-.601.275-.792.059-.193.052-.281.188-.278-.067-.143-.284-.092-.488.004-.215.097-.475.239-.717.38-.24.124-.41.307-.64.426a1.68 1.68 0 0 1-.836.199c-.714-.006-1.337-.222-1.777-.511a2.08 2.08 0 0 1-.508-.455c-.121-.152-.157-.289-.219-.376-.05-.091-.113-.16-.125-.31s.054-.376.271-.633zm-.83-30.843c-.009 1.025.269 1.987.896 2.6 1.809 1.905 4.401 2.27 6.89 2.502.835.085 1.679-.157 2.514-.361-.778-.37-1.594-.726-2.41-.789-2.462-.215-4.73-.615-6.153-2.143-.45-.531-1.068-1.01-1.737-1.809z"/></g><g opacity=".2" fill="#070d1c"><path d="M127.268 47.793l-.227 1.577s-4.643 1.509-7.644 2.029c-2.322.402-9.371.021-11.653-.59-2.643-.709-7.848-2.763-10.373-3.82-2.818-1.179-7.734-4.403-10.171-6.096-2.975-2.068-8.701-5.779-10.979-8.597-1.937-2.396-5.798-11.14-5.798-11.14l.71-.515 56.134 27.153zM73.033 71.41s6.636 14.628 9.878 18.845c1.16 1.508 4.623 4.99 4.623 4.99s4.122-2.368 4.969-4.023c.73-1.427 4.418-2.379 6.007-2.163 1.378.188 4.145 3.708 4.145 3.708s6.284-2.023 8.025-3.321c.694-.518 2.183-2.688 2.183-2.688l-3.57-.627-1.36-5.093-5.259-3.355-2.286 1.74s-8.331 5.763-13.613 4.776c-2.659-.497-8.685-6.457-8.685-6.457l-5.058-6.331zm62.842 115.316l-7.482-33.57 1.877 29.637 3.179 21.847 3.244 16.053 6.819 12.264 4.686-1.015 1.221 3.955s6.409-3.519 8.153-5.191c2.259-2.166 7.087-11.123 7.087-11.123l-10.105 9.577s-5.434-1.954-6.356-3.519c-.661-1.121.663-4.068 0-5.203-.672-1.149-4.102-1.515-4.533-2.641-.779-2.033 1.126-3.658 1.126-3.658l-8.916-27.413zm-77.508-59.421s4.298 14.784 5.072 19.846c.668 4.363.354 13.255.942 17.632.345 2.574 2.53 10.076 2.53 10.076l-6.933-6.292-.001-7.929-1.536-11.578-.073-21.755z"/><path d="M145.421 240.277c-.263 3.128-8.952 3.952-11.972 4.971-11.711 3.956-48.67 7.527-48.67 7.527l25.187-6.341 18.493-6.157s4.131-1.903 9.133-4.38c1.595-.79 5.92-3.956 5.92-3.956l-1.098 4.465s3.179 1.83 3.007 3.871zm-.581 6.662s-.209 12.718-2.191 16.329c-1.825 3.325-8.883 7.484-12.544 8.406-4.398 1.108-15.668-3.23-20.137-3.999l-21.593-3.529s5.495-1.501 7.345-1.667c4.112-.37 16.511.388 16.511.388l9.682 1.442s11.478-.332 15.681-3.653c4.305-3.402 7.246-13.717 7.246-13.717zm-46.172 62.862s-1.642 4.456-1.856 6.015c-.782 5.709.623 23.041.623 23.041l-4.913-30.311-2.549-18.823 8.695 20.078zM17.662 496.81l12.27 3.781 8.024 1.919-2.142 8.407s-5.212 11.331-6.196 15.351c-.633 2.59-1.025 10.615-1.025 10.615l3.189 5.788s5.799-4.765 7.221-6.796c1.271-1.816 3.496-8.148 3.496-8.148l.628-6.05s8.323-4.963 9.508-8.014c1.979-5.096-2.741-22.157-2.741-22.157s-9.574 3.812-13.023 4.482c-2.433.473-7.459 1.354-9.881.822-2.057-.453-7.751-3.306-7.751-3.306l-1.578 3.306z"/><path d="M29.209 196.854l17.619 17.284 21.976 18.818 19.57 13.983s6.972 10.653 11.265 12.616c5.182 2.369 21.427 0 21.427 0s12.271-6.456 10.607-9.626c-3.081-5.872-17.968-8.357-17.968-8.357L90.673 224.44l-9.639-7.43-6.918-6.524s-3.505 4.788-5.312 5.278c-4.653 1.26-12.035-4.53-12.035-4.53l-27.56-14.38zm32.059 219.611l-4.498 26.856 4.498 24.519-1.126-28.015 1.126-23.36zm110.094-184.524l-6.184 3.188c-1.591.944-4.035 1.693-4.851 2.836-.343.479-.518 2.612-.518 2.612l4.347 2.487 9.222.151 2.655 1.287s-1.453 2.437-1.453 6.44c0 1.7.084 4.113.404 5.397.651 2.604.651 6.815.651 6.815l-1.055-2.833-1.302 7.607s.032-3.073-1.896-3.341c-1.52-.21-2.728.858-2.728.858l-.94 2.272-.28-2.058s-.959-1.101-1.41-1.13c-.827-.055-2.835 1.717-2.835 1.717l.366-4.369-2.64 3.063s-.274-4.221-.944-4.332c-1.727-.287-2.087.79-2.087.79l1.291-5.482-2.355-3.645-5.834-12.603 2.312-1.432 18.064-6.295z"/></g><path d="M70.42 20.003c-.003-1.03 2.701-5.911 4.426-7.093 1.624-1.112 2.594 0 2.594 0s4.238-6.363 8.289-8.543c2.656-1.43 8.508-3.056 11.555-3.427 3.798-.463 10.772.478 15.443 2.578 2.913 1.31 7.587 5.647 9.995 7.952 1.957 1.873 4.21 5.092 6.133 9.685 2.674 6.383.578 15.923.578 15.923s.564 1.617.688 2.251c.336 1.726-1.879 7.24-2.856 8.983-.55.982-10.741 1.487-19.524.357-3.038-.391-9.071-3.046-11.895-4.525-4.06-2.125-11.834-6.898-15.337-10.012-3.254-2.893-10.082-12.442-10.088-14.13z" fill="#070d1c"/><g fill="#fff"><path d="M77.764 13.277c.326 1.547.972 2.925 1.909 4.055l1.863 2.14c2.154 2.467 4.455 5.076 7.222 7.365 1.16.987 2.596 1.668 4.086 2.202-1.178-1.066-2.205-2.172-3.351-3.091-2.677-2.213-4.937-4.771-7.088-7.235l-1.845-2.118c-.903-1.085-1.898-2.008-2.796-3.318zm51.67 23.803c-.313.661-.801.948-1.35 1.13s-1.199.237-1.848.309a11.47 11.47 0 0 1-1.45.05l-2.118-.014.042.002-1.659-.133-.02-.001c-2.039-.091-3.795-.303-5.638-.71l-.804-.158c-1.341-.252-2.852-.087-4.015-.243 1.001.632 2.53 1.164 3.813 1.379l.757.149c1.912.423 3.747.643 5.835.736l-.021-.001 1.659.133.043.002 2.11.014a12.54 12.54 0 0 0 1.587-.056c.737-.075 1.506-.328 2.098-.774s.984-1.088.979-1.812z"/></g><path d="M108.844 109.727l2.363-1.013 2.572-.036 3.091 2.41-9.87 2.098 1.844-3.459z" fill="#fff433"/><path d="M111.341 121.463l2.571-.035 2.364-1.014 1.843-3.459-9.869 2.098 3.091 2.41z" fill="#2d2d2d"/><path d="M107.213 116.207l10.692-2.273.212 3.022-9.869 2.098-1.035-2.847z" fill="#9b59d0"/><path d="M107.212 116.208l10.692-2.273-1.035-2.847-9.869 2.098.212 3.022z" fill="#fff"/><path d="M117.828 113.951c.764 3.594-1.083 6.875-3.916 7.478s-5.856-1.644-6.62-5.239 1.084-6.875 3.917-7.477 5.855 1.644 6.619 5.238z" stroke="#070d1c"/><path d="M26.236 368.049l1.661 1.316c2.403 2.107 4.576 4.748 7.614 5.666 1.381.417 2.991.147 4.374-.156 2.729-.6 5.356-1.695 8.029-2.537.033-.012.072.025.083.063s-.023.081-.056.093c-2.988 1.329-6.154 2.61-9.357 3.069-1.475.211-3.181.183-4.596-.376-1.314-.519-2.518-1.416-3.627-2.348-1.597-1.341-3.011-2.851-4.318-4.539-.061-.061-.054-.182 0-.251s.133-.061.193 0z" fill="#070d1c"/></g><defs><radialGradient id="A" cx="0" cy="0" r="1" gradientTransform="translate(79.2233 55.1645) scale(10.3505)" xlink:href="#G"><stop stop-color="#dda88e"/><stop offset="1" stop-color="#edd1bf"/></radialGradient><radialGradient id="B" cx="0" cy="0" r="1" gradientTransform="translate(109.756 64.9638) scale(7.33818 7.33817)" xlink:href="#G"><stop stop-color="#dda88e"/><stop offset="1" stop-color="#edd1bf"/></radialGradient><radialGradient id="C" cx="0" cy="0" r="1" gradientTransform="translate(68.8685 41.5671) scale(5.08365 5.08365)" xlink:href="#G"><stop stop-color="#dda88e"/><stop offset="1" stop-color="#edd1bf"/></radialGradient><radialGradient id="D" cx="0" cy="0" r="1" gradientTransform="translate(106.079 215.764) scale(25.4587 25.4587)" xlink:href="#G"><stop stop-color="#dda88e"/><stop offset="1" stop-color="#edd1bf"/></radialGradient><radialGradient id="E" cx="0" cy="0" r="1" gradientTransform="translate(166.527 250.559) scale(11.9749 11.9749)" xlink:href="#G"><stop stop-color="#dda88e"/><stop offset="1" stop-color="#edd1bf"/></radialGradient><clipPath id="F"><path fill="#fff" d="M0 0h188v551H0z"/></clipPath><linearGradient id="G" gradientUnits="userSpaceOnUse"/></defs></svg>